<svg id="outputsvg" xmlns="http://www.w3.org/2000/svg" style="transform: matrix(1, 0, 0, 1, 20.7891, -1.01171); transform-origin: 50% 50%; cursor: move; display: inline; transition: none 0s ease 0s;" width="464" height="464" viewBox="0 0 4640 4640" preserveAspectRatio="xMidYMid meet" title="circle-cropped.svg (76KB)"><g id="layer101" fill="#24191a" stroke="none">  <path d="M2027 4625 c-239 -29 -510 -111 -742 -224 -239 -117 -432 -259 -636 -468 -324 -332 -536 -747 -620 -1218 -21 -115 -24 -161 -24 -395 0 -234 3 -280 24 -395 99 -554 381 -1040 813 -1401 325 -271 772 -462 1208 -514 109 -13 431 -13 540 0 273 33 543 116 796 245 583 298 1024 850 1184 1482 56 221 65 304 65 588 -1 283 -9 353 -66 579 -138 548 -486 1034 -974 1361 -270 181 -655 321 -992 360 -153 18 -427 18 -576 0z"></path>  </g> <g id="layer102" fill="#4d474f" stroke="none">  <path d="M2560 4620 c8 -5 25 -10 37 -10 12 0 42 -9 65 -19 24 -10 70 -29 103 -42 68 -26 147 -69 127 -69 -7 0 -30 9 -52 20 -59 30 -131 52 -172 54 -37 1 -64 -13 -40 -21 18 -7 15 -21 -5 -19 -10 0 -19 -9 -23 -24 -4 -17 -13 -26 -30 -27 -15 -1 -18 0 -7 3 21 7 22 30 2 38 -11 4 -14 13 -9 30 5 21 -10 45 -21 34 -4 -3 -13 -51 -14 -75 -1 -15 -31 -18 -31 -3 0 6 -6 5 -14 -2 -8 -7 -12 -16 -10 -20 2 -4 -1 -10 -7 -14 -8 -4 -9 -3 -5 4 4 7 2 12 -4 12 -7 0 -5 7 4 16 20 19 20 25 2 18 -8 -3 -19 -18 -25 -32 -5 -15 -10 -22 -10 -15 -1 8 -18 10 -53 7 -35 -3 -55 0 -61 8 -7 10 -10 10 -14 1 -3 -8 -24 -13 -51 -13 -65 0 -184 -23 -262 -50 -98 -34 -364 -161 -450 -215 -22 -14 -45 -26 -52 -27 -7 -2 -15 -5 -18 -8 -14 -15 -89 -70 -95 -70 -4 0 -20 -14 -36 -31 -19 -21 -36 -30 -48 -26 -13 3 -22 -3 -30 -20 -6 -13 -16 -21 -21 -18 -6 4 -17 1 -25 -5 -11 -9 -19 -7 -37 9 l-22 21 33 -6 c26 -5 32 -4 27 5 -5 7 -14 10 -21 7 -8 -3 -16 0 -18 7 -3 9 -7 9 -19 0 -8 -7 -19 -9 -23 -5 -5 4 -1 -5 8 -20 24 -39 21 -44 -8 -11 -22 26 -24 26 -25 7 0 -11 5 -25 12 -32 9 -9 7 -12 -10 -12 -12 0 -26 -10 -33 -22 -10 -18 -13 -19 -20 -6 -10 18 19 108 34 108 12 0 62 55 72 77 13 29 14 43 4 49 -5 3 -9 1 -9 -3 0 -5 -17 -9 -38 -8 -38 0 -39 1 -36 35 1 19 7 34 13 33 6 -2 8 4 4 14 -5 14 -1 15 31 10 28 -4 38 -2 43 9 8 21 -12 40 -29 28 -16 -12 -83 -35 -95 -33 -4 1 -15 1 -23 0 -12 -1 -11 -5 5 -19 21 -18 31 -72 14 -72 -6 0 -8 4 -5 9 3 4 -6 21 -19 37 -24 28 -25 28 -25 7 0 -14 -6 -23 -16 -23 -8 0 -12 5 -9 10 10 17 -1 11 -41 -21 -22 -17 -38 -37 -36 -45 2 -9 -6 -14 -22 -14 -31 0 -254 -212 -353 -335 -248 -309 -413 -675 -484 -1070 -21 -115 -24 -161 -24 -395 0 -234 3 -280 24 -395 99 -554 381 -1040 813 -1401 325 -271 772 -462 1208 -514 109 -13 431 -13 540 0 273 33 543 116 796 245 583 298 1024 850 1184 1482 56 221 65 304 65 588 -1 283 -9 353 -66 579 -139 550 -488 1036 -977 1362 -253 169 -632 312 -935 353 -101 14 -117 14 -97 1z m470 -215 c13 -14 28 -25 33 -25 5 0 28 -18 50 -39 23 -22 54 -50 68 -63 37 -32 99 -106 74 -89 -11 8 -50 45 -86 82 -37 36 -92 85 -123 108 -31 23 -56 44 -56 46 0 12 19 3 40 -20z m279 -267 c26 -42 61 -107 61 -114 0 -8 -47 56 -79 108 -14 24 -17 36 -9 33 7 -3 19 -15 27 -27z m-2287 -10 c-9 -9 -15 -9 -24 0 -9 9 -7 12 12 12 19 0 21 -3 12 -12z m968 -370 c0 -5 -5 -8 -11 -8 -5 0 -8 4 -4 9 3 5 1 12 -5 16 -5 3 -10 11 -10 18 0 12 29 -23 30 -35z m-40 1 c0 -6 -6 -9 -14 -6 -8 3 -17 -1 -20 -9 -3 -9 -10 -13 -15 -10 -5 4 -12 0 -15 -6 -2 -7 -4 -4 -3 8 4 32 29 54 50 43 9 -6 17 -15 17 -20z m-108 -1 c-18 -18 -14 -27 10 -20 13 3 19 1 15 -5 -6 -9 -24 -10 -62 -4 -5 1 1 11 14 21 25 22 42 27 23 8z m348 -39 c0 -16 5 -29 11 -29 5 0 8 -4 4 -9 -3 -5 -1 -12 5 -16 18 -11 2 -23 -25 -17 -14 2 -25 10 -25 17 0 8 -3 22 -6 32 -5 15 -4 15 5 3 8 -12 11 -7 11 23 0 23 4 36 10 32 6 -3 10 -19 10 -36z m-206 -22 c7 -6 6 -7 -4 -4 -8 2 -16 14 -17 28 -1 19 -1 20 4 4 3 -11 10 -24 17 -28z m-54 -19 c0 -17 -3 -28 -7 -25 -3 4 -15 0 -25 -10 -17 -15 -18 -15 -18 5 0 16 4 20 17 15 12 -5 15 -2 10 10 -3 9 -2 17 3 17 5 0 6 7 3 17 -4 11 -3 14 5 9 7 -4 12 -21 12 -38z m200 27 c0 -8 -9 -15 -20 -15 -25 0 -26 17 -2 23 9 3 18 5 20 6 1 0 2 -6 2 -14z m-270 -78 c8 -3 -7 -5 -35 -5 -27 0 -41 2 -30 5 11 3 24 9 29 14 6 5 12 5 15 0 3 -4 13 -11 21 -14z m-165 -6 c-3 -5 2 -16 11 -25 12 -13 20 -14 36 -5 15 8 27 8 44 0 18 -8 24 -8 24 1 0 9 3 9 12 0 18 -18 2 -26 -51 -27 -58 0 -109 28 -90 51 13 16 23 19 14 5z m-75 -91 c0 -5 -6 -10 -14 -10 -8 0 -19 -13 -25 -30 -12 -37 -20 -39 -13 -5 2 14 14 32 25 40 25 18 27 18 27 5z m150 -5 c0 -8 -6 -15 -12 -15 -9 0 -8 -4 2 -10 9 -6 10 -10 3 -10 -18 0 -36 37 -20 43 21 9 27 7 27 -8z m-150 -81 c0 -8 -4 -14 -10 -14 -5 0 -10 9 -10 21 0 11 5 17 10 14 6 -3 10 -13 10 -21z m-48 -11 c-6 -2 -10 -9 -7 -13 3 -5 1 -11 -5 -15 -5 -3 -10 0 -10 8 0 17 10 27 24 26 6 0 5 -3 -2 -6z m7 -83 c9 0 25 -6 35 -13 16 -12 15 -13 -6 -12 -13 1 -30 5 -37 9 -8 5 -17 3 -23 -5 -7 -12 -9 -11 -7 1 3 33 -2 45 -11 25 -7 -16 -9 -17 -9 -3 -1 9 7 21 17 27 13 8 18 6 20 -10 2 -10 11 -19 21 -19z m-75 -25 c3 -8 2 -15 -3 -15 -5 0 -14 7 -21 15 -10 12 -10 15 3 15 8 0 17 -7 21 -15z m1 -85 c3 -5 -1 -10 -9 -10 -8 0 -18 5 -21 10 -3 6 1 10 9 10 8 0 18 -4 21 -10z m1005 -455 c-7 -8 -16 -15 -21 -15 -5 0 -9 7 -9 15 0 9 9 15 21 15 18 0 19 -2 9 -15z m188 -50 c29 -12 42 -23 40 -34 -4 -20 -48 -36 -79 -28 -20 5 -24 13 -24 47 -1 24 3 39 10 36 5 -2 29 -12 53 -21z m-760 8 c-33 -9 -33 -74 0 -89 33 -14 -50 -22 -115 -12 -65 11 -73 19 -49 44 18 17 135 63 161 62 15 0 16 -1 3 -5z m242 -433 c0 -5 -14 -10 -31 -10 -17 0 -28 4 -24 10 3 6 17 10 31 10 13 0 24 -4 24 -10z m-294 -201 c65 -20 138 -68 187 -123 15 -17 34 -38 42 -47 8 -9 15 -20 15 -25 0 -5 -5 -2 -10 6 -5 8 -10 10 -10 4 0 -5 9 -20 20 -32 11 -12 20 -30 20 -42 0 -11 4 -20 9 -20 4 0 7 -13 5 -30 -2 -20 1 -29 9 -27 7 1 13 -12 15 -33 1 -19 3 -51 5 -70 4 -53 10 -58 81 -56 72 1 98 15 80 44 -17 27 16 135 76 244 59 109 95 150 154 180 143 74 456 60 552 -24 37 -33 67 -81 57 -92 -4 -3 -2 -6 4 -6 13 0 46 -86 38 -100 -3 -5 -2 -10 4 -10 6 0 8 -7 5 -15 -4 -8 -1 -15 6 -15 8 0 9 -10 5 -29 -4 -20 -2 -30 8 -34 8 -3 17 -26 21 -55 3 -27 15 -60 24 -73 24 -31 20 -106 -5 -124 -10 -7 -21 -11 -26 -8 -4 3 -22 -2 -40 -10 -91 -43 -487 -56 -702 -24 -170 26 -300 32 -409 17 -56 -7 -100 -18 -107 -26 -7 -8 -20 -12 -30 -9 -10 3 -37 -3 -60 -14 -23 -11 -45 -18 -50 -16 -4 3 -9 0 -11 -7 -5 -14 -168 -23 -168 -9 0 5 -19 11 -42 15 -23 4 -45 12 -49 17 -3 6 -37 13 -75 15 -70 4 -301 41 -316 50 -15 10 -9 112 8 129 10 9 30 73 45 143 34 150 82 258 130 294 42 30 114 58 183 69 75 11 229 1 302 -22z"></path>  <path d="M1598 2088 c-97 -7 -159 -30 -200 -74 -34 -38 -84 -190 -92 -281 -17 -201 53 -247 374 -247 170 0 270 13 355 45 90 34 103 71 74 213 -32 156 -94 262 -179 306 -71 36 -186 50 -332 38z m224 -315 c10 -9 18 -29 18 -45 0 -30 8 -35 29 -15 11 9 12 9 7 0 -12 -22 -70 -43 -129 -47 -49 -3 -67 1 -127 30 -39 18 -79 42 -90 52 -19 18 -19 18 15 19 27 1 35 -3 35 -16 0 -18 30 -38 65 -43 13 -2 19 2 17 11 -2 8 -1 25 2 37 5 20 13 23 69 27 34 2 64 4 66 5 3 1 13 -5 23 -15z"></path>  <path d="M1780 1718 c0 -11 7 -18 20 -18 13 0 20 7 20 18 0 11 -7 18 -20 18 -13 0 -20 -7 -20 -18z"></path>  <path d="M2725 2089 c-91 -14 -125 -28 -178 -78 -68 -63 -113 -162 -137 -299 -13 -77 -2 -120 41 -156 56 -47 216 -76 424 -76 209 0 324 31 353 95 24 52 25 126 2 225 -12 52 -22 105 -23 117 -1 11 -5 19 -9 16 -5 -2 -8 1 -8 7 0 6 -11 28 -24 49 -14 21 -22 42 -18 46 4 4 2 5 -3 4 -6 -2 -28 6 -50 18 -72 37 -236 51 -370 32z m113 -299 c13 -21 8 -45 -8 -35 -5 3 -11 1 -14 -4 -4 -5 -2 -12 4 -16 6 -4 7 -11 4 -17 -5 -7 2 -9 20 -6 17 4 25 1 23 -6 -4 -13 -117 -20 -135 -7 -18 11 -20 75 -3 95 20 24 93 21 109 -4z"></path>  <path d="M2741 1772 c-11 -20 10 -62 31 -62 7 0 6 5 -2 15 -7 8 -10 26 -8 40 6 29 -7 33 -21 7z"></path>  <path d="M2570 4572 c0 -5 9 -12 21 -15 13 -3 19 -1 16 6 -5 15 -37 22 -37 9z"></path>  <path d="M1110 4307 c-27 -17 -31 -23 -16 -25 10 -2 24 6 33 18 8 12 21 19 29 16 8 -3 14 -1 14 4 0 16 -23 11 -60 -13z"></path>  <path d="M1305 4264 c-9 -9 -14 -19 -11 -21 9 -9 46 9 46 23 0 19 -15 18 -35 -2z"></path>  <path d="M1230 4251 c0 -5 6 -12 13 -15 8 -3 4 -12 -13 -26 -18 -16 -25 -18 -28 -8 -8 27 -32 37 -63 26 -34 -12 -31 -23 9 -31 18 -4 31 -14 35 -26 8 -31 21 -26 61 20 30 35 33 44 21 55 -15 16 -35 18 -35 5z"></path>  <path d="M1220 4070 c0 -11 5 -20 11 -20 5 0 7 5 4 10 -3 6 -1 10 4 10 6 0 11 5 11 10 0 6 -7 10 -15 10 -8 0 -15 -9 -15 -20z"></path>  </g> <g id="layer103" fill="#6c3b2c" stroke="none">  <path d="M2110 4444 c-73 -13 -170 -44 -170 -53 0 -4 -10 -8 -22 -8 -13 -1 -24 -7 -26 -13 -2 -5 -13 -10 -24 -10 -11 0 -31 -9 -45 -20 -14 -11 -33 -20 -42 -20 -10 0 -22 -5 -29 -12 -7 -7 -12 -9 -12 -5 0 3 -21 -6 -47 -21 -27 -15 -70 -38 -96 -50 -30 -14 -45 -27 -41 -34 4 -6 3 -8 -3 -5 -6 4 -23 -5 -39 -18 -16 -14 -35 -25 -41 -25 -7 0 -13 -5 -13 -11 0 -5 -4 -8 -8 -5 -5 3 -16 -4 -25 -15 -9 -10 -23 -19 -30 -19 -7 0 -23 -10 -34 -22 -12 -13 -49 -47 -82 -77 -34 -30 -61 -61 -61 -68 0 -7 -5 -13 -10 -13 -15 0 -60 -100 -60 -133 0 -16 5 -37 10 -47 10 -19 9 -19 -24 1 -19 11 -40 27 -46 35 -14 16 -40 19 -40 5 0 -16 -101 23 -160 61 -30 20 -92 54 -137 76 l-81 41 -71 -75 c-282 -296 -493 -727 -572 -1169 -35 -192 -35 -598 0 -790 99 -554 381 -1040 813 -1401 325 -271 772 -462 1208 -514 109 -13 431 -13 540 0 273 33 543 116 796 245 237 121 414 254 609 456 333 346 540 759 622 1247 25 151 25 582 0 727 -68 390 -211 725 -439 1033 -92 125 -313 352 -350 359 -17 3 -25 10 -21 19 9 25 -7 15 -53 -33 -25 -26 -49 -42 -52 -37 -4 6 -22 16 -39 23 -18 8 -33 17 -33 22 0 5 -10 9 -22 9 -17 0 -19 3 -10 12 7 7 12 28 12 47 l-1 36 -20 -27 c-11 -16 -27 -28 -35 -28 -17 0 -19 -17 -1 -23 9 -3 9 -8 -2 -21 -13 -15 -11 -17 20 -15 19 2 41 -1 49 -6 15 -9 19 -11 39 -14 5 0 13 -10 16 -22 5 -16 -3 -29 -37 -60 -63 -56 -93 -52 -43 7 30 35 32 48 6 39 -12 -3 -21 0 -25 10 -8 22 -25 18 -19 -5 3 -11 0 -20 -6 -20 -6 0 -11 13 -11 30 0 22 -4 28 -15 24 -18 -7 -21 31 -4 42 8 5 8 8 0 13 -8 5 -8 22 -2 54 4 26 5 47 0 47 -5 0 -7 6 -5 13 3 6 7 25 11 41 5 24 3 28 -11 22 -17 -6 -17 -6 -1 12 16 18 15 19 -21 39 -32 18 -40 19 -55 8 -18 -13 -18 -13 0 -18 16 -4 15 -6 -4 -12 -13 -4 -24 -12 -24 -19 -1 -6 -2 -20 -3 -31 0 -11 -5 -26 -9 -33 -5 -7 -5 -21 -2 -33 4 -11 2 -25 -3 -32 -13 -17 -8 -120 7 -125 6 -2 8 -8 5 -13 -3 -6 1 -25 10 -44 9 -18 13 -40 10 -48 -3 -8 -1 -18 5 -21 7 -5 7 -15 1 -32 -6 -14 -10 -36 -10 -50 0 -14 -15 -40 -35 -62 l-36 -37 23 44 c27 55 31 110 11 168 -14 41 -53 74 -61 52 -2 -5 -12 -9 -22 -9 -24 0 -31 -12 -20 -30 7 -12 12 -11 29 4 18 16 21 17 21 4 0 -9 -11 -19 -25 -22 -28 -7 -35 -26 -7 -21 9 1 11 0 5 -2 -16 -6 -16 -3 6 -55 10 -25 15 -51 11 -63 -5 -15 -10 -8 -19 32 -27 112 -115 220 -278 345 -51 38 -93 74 -93 78 0 4 -10 10 -23 14 -12 3 -32 14 -44 26 -12 11 -29 20 -37 20 -8 0 -20 8 -25 18 -6 9 -11 13 -11 8 0 -5 -9 -1 -21 10 -12 10 -23 18 -25 17 -11 -8 -34 -1 -48 13 -9 8 -16 12 -16 8 0 -3 -7 -1 -15 6 -8 7 -15 9 -15 5 0 -4 -6 -3 -12 3 -7 5 -30 13 -52 16 -21 4 -42 8 -46 11 -8 5 -20 7 -110 21 -68 11 -256 10 -320 -2z m1341 -256 c4 -45 -11 -75 -31 -63 -8 5 -6 11 6 19 13 10 14 17 5 34 -10 18 -9 22 4 22 8 0 16 -6 16 -12z m-1461 -430 c0 -5 -5 -8 -11 -8 -5 0 -8 4 -4 9 3 5 1 12 -5 16 -5 3 -10 11 -10 18 0 12 29 -23 30 -35z m-40 1 c0 -6 -6 -9 -14 -6 -8 3 -17 -1 -20 -9 -3 -9 -10 -13 -15 -10 -5 4 -12 0 -15 -6 -2 -7 -4 -4 -3 8 4 32 29 54 50 43 9 -6 17 -15 17 -20z m-108 -1 c-18 -18 -14 -27 10 -20 13 3 19 1 15 -5 -6 -9 -24 -10 -62 -4 -5 1 1 11 14 21 25 22 42 27 23 8z m348 -39 c0 -16 5 -29 11 -29 5 0 8 -4 4 -9 -3 -5 -1 -12 5 -16 18 -11 2 -23 -25 -17 -14 2 -25 10 -25 17 0 8 -3 22 -6 32 -5 15 -4 15 5 3 8 -12 11 -7 11 23 0 23 4 36 10 32 6 -3 10 -19 10 -36z m-206 -22 c7 -6 6 -7 -4 -4 -8 2 -16 14 -17 28 -1 19 -1 20 4 4 3 -11 10 -24 17 -28z m-54 -19 c0 -17 -3 -28 -7 -25 -3 4 -15 0 -25 -10 -17 -15 -18 -15 -18 5 0 16 4 20 17 15 12 -5 15 -2 10 10 -3 9 -2 17 3 17 5 0 6 7 3 17 -4 11 -3 14 5 9 7 -4 12 -21 12 -38z m200 27 c0 -8 -9 -15 -20 -15 -25 0 -26 17 -2 23 9 3 18 5 20 6 1 0 2 -6 2 -14z m-270 -78 c8 -3 -7 -5 -35 -5 -27 0 -41 2 -30 5 11 3 24 9 29 14 6 5 12 5 15 0 3 -4 13 -11 21 -14z m-165 -6 c-3 -5 2 -16 11 -25 12 -13 20 -14 36 -5 15 8 27 8 44 0 18 -8 24 -8 24 1 0 9 3 9 12 0 18 -18 2 -26 -51 -27 -58 0 -109 28 -90 51 13 16 23 19 14 5z m-75 -91 c0 -5 -6 -10 -14 -10 -8 0 -19 -13 -25 -30 -12 -37 -20 -39 -13 -5 2 14 14 32 25 40 25 18 27 18 27 5z m150 -5 c0 -8 -6 -15 -12 -15 -9 0 -8 -4 2 -10 9 -6 10 -10 3 -10 -18 0 -36 37 -20 43 21 9 27 7 27 -8z m-150 -81 c0 -8 -4 -14 -10 -14 -5 0 -10 9 -10 21 0 11 5 17 10 14 6 -3 10 -13 10 -21z m-48 -11 c-6 -2 -10 -9 -7 -13 3 -5 1 -11 -5 -15 -5 -3 -10 0 -10 8 0 17 10 27 24 26 6 0 5 -3 -2 -6z m7 -83 c9 0 25 -6 35 -13 16 -12 15 -13 -6 -12 -13 1 -30 5 -37 9 -8 5 -17 3 -23 -5 -7 -12 -9 -11 -7 1 3 33 -2 45 -11 25 -7 -16 -9 -17 -9 -3 -1 9 7 21 17 27 13 8 18 6 20 -10 2 -10 11 -19 21 -19z m-75 -25 c3 -8 2 -15 -3 -15 -5 0 -14 7 -21 15 -10 12 -10 15 3 15 8 0 17 -7 21 -15z m1 -85 c3 -5 -1 -10 -9 -10 -8 0 -18 5 -21 10 -3 6 1 10 9 10 8 0 18 -4 21 -10z m1005 -455 c-7 -8 -16 -15 -21 -15 -5 0 -9 7 -9 15 0 9 9 15 21 15 18 0 19 -2 9 -15z m188 -50 c29 -12 42 -23 40 -34 -4 -20 -48 -36 -79 -28 -20 5 -24 13 -24 47 -1 24 3 39 10 36 5 -2 29 -12 53 -21z m-760 8 c-33 -9 -33 -74 0 -89 33 -14 -50 -22 -115 -12 -65 11 -73 19 -49 44 18 17 135 63 161 62 15 0 16 -1 3 -5z m242 -433 c0 -5 -14 -10 -31 -10 -17 0 -28 4 -24 10 3 6 17 10 31 10 13 0 24 -4 24 -10z m-294 -201 c65 -20 138 -68 187 -123 15 -17 34 -38 42 -47 8 -9 15 -20 15 -25 0 -5 -5 -2 -10 6 -5 8 -10 10 -10 4 0 -5 9 -20 20 -32 11 -12 20 -30 20 -42 0 -11 4 -20 9 -20 4 0 7 -13 5 -30 -2 -20 1 -29 9 -27 7 1 13 -12 15 -33 1 -19 3 -51 5 -70 4 -53 10 -58 81 -56 72 1 98 15 80 44 -17 27 16 135 76 244 59 109 95 150 154 180 143 74 456 60 552 -24 37 -33 67 -81 57 -92 -4 -3 -2 -6 4 -6 13 0 46 -86 38 -100 -3 -5 -2 -10 4 -10 6 0 8 -7 5 -15 -4 -8 -1 -15 6 -15 8 0 9 -10 5 -29 -4 -20 -2 -30 8 -34 8 -3 17 -27 21 -57 4 -29 15 -59 26 -70 14 -14 18 -30 15 -66 -1 -27 -8 -50 -14 -52 -6 -2 -9 -7 -7 -11 3 -4 -10 -8 -27 -9 -17 -2 -34 -6 -37 -10 -3 -4 -9 -7 -15 -7 -5 0 -50 -7 -100 -15 -126 -20 -447 -18 -590 3 -170 26 -300 32 -409 17 -56 -7 -100 -18 -107 -26 -7 -8 -20 -12 -30 -9 -10 3 -37 -3 -60 -14 -23 -11 -45 -18 -50 -16 -4 3 -9 0 -11 -7 -5 -14 -168 -23 -168 -9 0 5 -19 11 -42 15 -23 4 -45 12 -49 18 -4 5 -28 11 -55 13 -114 7 -197 17 -222 26 -15 6 -28 10 -30 9 -1 -1 -20 1 -42 5 -50 8 -65 33 -55 89 3 23 7 49 8 59 1 9 9 17 17 17 9 0 17 6 18 13 3 52 58 245 86 303 47 99 114 143 250 165 75 11 229 1 302 -22z"></path>  <path d="M1598 2088 c-97 -7 -159 -30 -199 -74 -27 -30 -84 -178 -74 -193 3 -5 1 -11 -4 -13 -14 -5 -23 -141 -12 -189 23 -101 112 -133 371 -133 170 0 270 13 355 45 90 34 103 71 74 213 -32 156 -94 262 -179 306 -71 36 -186 50 -332 38z m235 -328 c15 -16 23 -30 17 -30 -5 0 -10 -7 -10 -15 0 -18 11 -19 29 -2 11 9 12 9 7 0 -12 -22 -70 -43 -129 -47 -49 -3 -67 1 -127 30 -39 18 -79 42 -90 52 -19 18 -19 18 15 19 25 1 35 -3 35 -14 0 -9 8 -22 18 -29 21 -16 40 -18 25 -3 -17 17 -4 39 23 39 13 0 24 4 24 10 0 5 28 11 63 13 34 2 65 4 68 5 3 1 18 -11 32 -28z"></path>  <path d="M2725 2089 c-91 -13 -125 -28 -178 -78 -45 -42 -86 -101 -71 -101 4 0 -1 -9 -10 -19 -10 -11 -19 -31 -20 -45 0 -14 -5 -26 -10 -26 -4 0 -6 -7 -2 -15 3 -8 1 -15 -5 -15 -6 0 -8 -9 -4 -19 3 -11 1 -22 -5 -26 -6 -3 -8 -10 -5 -15 2 -4 0 -22 -6 -40 -24 -67 26 -146 109 -170 81 -24 224 -40 357 -40 209 0 324 31 353 95 24 52 25 126 2 225 -12 52 -22 105 -23 117 -1 11 -5 19 -9 16 -5 -2 -8 1 -8 7 0 6 -11 28 -24 49 -14 21 -22 42 -18 46 4 4 2 5 -3 4 -6 -2 -28 6 -50 18 -72 37 -236 51 -370 32z m106 -291 c0 -10 2 -10 6 0 13 33 53 -3 53 -47 0 -41 -30 -61 -90 -61 -30 0 -61 4 -68 9 -18 11 -20 75 -3 95 17 20 101 22 102 4z"></path>  <path d="M3597 4204 c-8 -8 1 -24 14 -24 5 0 9 7 9 15 0 15 -12 20 -23 9z"></path>  <path d="M3713 4135 c-22 -21 -31 -55 -15 -55 11 0 39 35 47 59 8 27 -4 25 -32 -4z"></path>  </g> <g id="layer104" fill="#9d5b4d" stroke="none">  <path d="M2165 4444 c-11 -2 -45 -9 -75 -15 -69 -14 -260 -87 -260 -100 0 -5 -6 -9 -14 -9 -20 0 -292 -140 -376 -195 -92 -59 -244 -210 -270 -267 -27 -60 -25 -79 13 -118 30 -31 31 -32 7 -25 -22 7 -44 20 -118 70 -10 7 -16 6 -19 -2 -6 -17 -95 16 -163 59 -30 20 -92 54 -137 76 l-81 41 -71 -75 c-282 -296 -493 -727 -572 -1169 -21 -115 -24 -161 -24 -395 0 -234 3 -280 24 -395 99 -554 381 -1040 813 -1401 325 -271 772 -462 1208 -514 109 -13 431 -13 540 0 273 33 543 116 796 245 237 121 414 254 609 456 333 346 540 759 622 1247 25 151 25 582 0 727 -68 390 -211 725 -439 1033 -92 125 -313 352 -350 359 -17 3 -25 10 -21 19 9 25 -7 15 -53 -33 -25 -26 -49 -42 -52 -37 -4 6 -22 16 -39 23 -18 8 -33 17 -33 22 0 5 -10 9 -22 9 -17 0 -19 3 -10 12 7 7 12 28 12 47 l-1 36 -20 -27 c-11 -16 -27 -28 -35 -28 -17 0 -19 -17 -1 -23 9 -3 9 -8 -2 -21 -13 -15 -11 -17 20 -15 19 2 41 -1 49 -6 15 -9 19 -11 39 -14 5 0 13 -10 16 -22 5 -16 -3 -29 -37 -60 -63 -56 -93 -52 -43 7 30 35 32 48 6 39 -12 -3 -21 0 -25 10 -8 22 -25 18 -19 -5 3 -11 0 -20 -6 -20 -6 0 -11 13 -11 30 0 22 -4 28 -15 24 -18 -7 -21 31 -4 42 8 5 8 8 0 13 -8 5 -8 22 -2 54 4 26 5 47 0 47 -5 0 -7 6 -5 13 3 6 7 25 11 41 5 24 3 28 -11 22 -17 -6 -17 -6 -1 12 16 18 15 19 -21 39 -32 18 -40 19 -55 8 -18 -13 -18 -13 0 -18 16 -4 15 -6 -4 -12 -13 -4 -24 -12 -24 -19 -1 -6 -2 -20 -3 -31 0 -11 -5 -26 -9 -33 -5 -7 -5 -21 -2 -33 4 -11 2 -25 -3 -32 -13 -17 -8 -120 7 -125 6 -2 8 -8 5 -13 -3 -6 1 -25 10 -44 9 -18 13 -40 10 -48 -3 -8 -1 -18 5 -21 7 -5 7 -15 1 -32 -6 -14 -10 -36 -10 -50 0 -14 -15 -40 -35 -62 l-36 -37 23 44 c27 55 31 110 11 168 -14 41 -53 74 -61 52 -2 -5 -12 -9 -22 -9 -24 0 -31 -12 -20 -30 7 -12 12 -11 29 4 18 16 21 17 21 4 0 -9 -11 -19 -25 -22 -28 -7 -35 -26 -7 -21 9 1 11 0 5 -2 -16 -6 -16 -3 4 -49 16 -39 19 -106 5 -130 -4 -7 -7 13 -7 44 0 139 -118 282 -383 467 -199 139 -364 194 -597 200 -77 2 -149 2 -160 -1z m1286 -256 c4 -45 -11 -75 -31 -63 -8 5 -6 11 6 19 13 10 14 17 5 34 -10 18 -9 22 4 22 8 0 16 -6 16 -12z m-1371 -308 c0 -6 8 -19 17 -30 13 -14 19 -16 25 -7 5 9 15 8 40 -5 38 -20 108 -33 108 -21 0 9 64 6 90 -4 21 -8 30 -10 73 -11 23 -1 36 -6 32 -12 -4 -6 -11 -7 -17 -4 -7 4 -8 2 -4 -4 4 -7 16 -12 27 -12 10 0 27 -4 37 -10 9 -5 29 -14 45 -20 21 -7 27 -16 27 -39 0 -32 11 -43 41 -45 26 -1 24 -21 -2 -21 -11 0 -24 -6 -28 -14 -8 -12 -12 -12 -25 2 -9 8 -16 20 -16 25 0 5 -6 15 -14 21 -11 9 -16 9 -22 0 -5 -8 -12 -3 -21 15 -17 33 -33 34 -27 1 3 -15 0 -25 -7 -25 -7 0 -10 -12 -7 -32 5 -28 4 -29 -9 -13 -7 11 -13 31 -13 46 0 15 -4 31 -10 34 -6 4 -10 -14 -10 -47 l-1 -53 -32 35 c-56 60 -72 67 -37 18 28 -40 32 -51 22 -70 l-11 -23 0 26 c-1 15 -7 26 -15 26 -10 0 -12 -9 -9 -30 4 -28 3 -29 -21 -23 -21 5 -26 3 -26 -11 0 -15 -2 -15 -9 -4 -8 13 -12 13 -27 0 -11 -9 -15 -9 -10 -1 5 8 -1 12 -22 12 -32 0 -41 13 -44 58 0 16 -4 8 -7 -18 -6 -48 -17 -56 -35 -27 -8 14 -8 20 4 27 8 5 12 12 8 15 -6 6 -9 4 -53 -49 l-24 -30 -5 25 c-3 13 -12 51 -20 84 -13 52 -15 55 -15 25 -1 -20 3 -40 9 -46 6 -6 6 -21 1 -39 -9 -29 -9 -29 -11 -5 -3 54 -16 -12 -15 -81 0 -52 -3 -68 -13 -64 -7 2 -15 -2 -19 -11 -5 -13 -8 -13 -26 3 -20 18 -20 17 -14 -5 4 -19 3 -21 -9 -11 -7 6 -21 8 -30 5 -9 -4 -23 -1 -32 6 -13 11 -15 9 -10 -14 3 -15 1 -25 -4 -22 -14 9 -48 -7 -48 -23 0 -8 -9 -17 -19 -20 -12 -3 -17 -11 -14 -19 3 -8 0 -14 -7 -14 -6 0 -8 -4 -5 -10 3 -5 -6 -12 -20 -16 -16 -4 -24 -12 -21 -19 3 -8 -2 -16 -10 -19 -9 -4 -12 -2 -8 5 5 8 1 8 -13 0 -11 -6 -24 -7 -29 -3 -5 4 -2 -1 5 -10 11 -15 11 -21 1 -33 -7 -8 -19 -15 -26 -15 -8 0 -15 -4 -15 -10 -1 -9 -3 -18 -8 -35 0 -2 -12 0 -26 5 -19 7 -23 6 -18 -5 3 -8 11 -15 19 -15 8 0 11 -6 7 -16 -4 -11 -9 -12 -16 -5 -15 15 -36 14 -53 -4 -14 -13 -13 -15 3 -15 15 0 16 -2 3 -11 -11 -8 -7 -9 18 -5 17 3 32 2 32 -2 0 -4 -16 -9 -35 -10 -23 -2 -35 2 -35 10 0 9 -3 9 -9 -2 -6 -8 -8 -17 -5 -21 2 -4 -5 -9 -16 -12 -11 -3 -18 -1 -14 4 3 5 1 9 -5 9 -19 0 -21 -19 -4 -29 10 -5 15 -13 11 -17 -5 -4 -3 -13 3 -21 9 -10 7 -13 -6 -13 -12 0 -16 6 -12 20 6 22 -8 28 -16 8 -3 -8 -6 -6 -6 5 -1 9 -8 17 -17 17 -14 0 -14 -3 -4 -15 10 -12 10 -15 -4 -15 -9 0 -16 8 -16 21 0 11 -4 18 -10 14 -5 -3 -6 -15 -1 -29 7 -18 5 -25 -12 -36 -21 -12 -21 -12 -7 5 10 12 10 16 2 11 -8 -5 -22 2 -38 19 -21 23 -25 35 -22 80 1 29 5 52 8 50 3 -2 5 22 5 53 0 31 5 57 11 59 6 2 9 14 7 27 -3 13 0 27 6 30 7 5 11 -2 11 -15 0 -33 22 -8 24 28 3 38 26 83 42 83 8 0 11 6 7 17 -5 13 -2 15 11 10 15 -6 17 -3 13 14 -10 37 54 136 107 164 20 11 50 43 72 77 24 37 54 68 81 84 24 14 43 28 43 32 0 4 16 12 35 18 19 6 32 7 29 3 -8 -14 60 2 78 18 10 9 25 12 40 8 14 -4 18 -3 11 2 -9 7 -7 13 8 27 20 17 21 17 14 -5 -6 -17 -4 -20 6 -13 8 5 28 9 44 10 52 2 56 4 49 15 -4 8 -9 7 -16 -2 -7 -10 -11 -11 -14 -2 -3 7 -12 9 -20 6 -8 -3 -14 -1 -14 5 0 12 10 16 50 19 17 1 30 -2 30 -7z m-44 -386 c-4 -20 -10 -34 -12 -31 -3 3 -2 21 2 41 3 21 9 35 11 32 3 -3 2 -21 -1 -42z m47 20 c3 -3 3 -13 0 -21 -5 -12 -7 -12 -14 -1 -15 23 -4 40 14 22z m891 -90 c8 -21 8 -24 -3 -24 -5 0 -11 9 -14 20 -6 24 8 27 17 4z m-1703 -339 c-9 -30 -9 -30 -10 10 -1 25 2 36 9 29 6 -6 6 -21 1 -39z m179 -140 c19 -23 8 -26 -19 -4 -16 13 -18 19 -8 19 8 0 20 -7 27 -15z m-120 -15 c0 -5 9 -10 21 -10 19 0 19 -1 4 -17 -16 -16 -18 -16 -27 1 -6 11 -16 15 -29 11 -11 -4 -19 -2 -19 5 0 6 4 9 9 5 5 -3 12 -1 16 5 8 13 25 13 25 0z m100 -49 c0 -5 -7 -14 -15 -21 -10 -9 -15 -9 -15 -1 0 6 5 11 11 11 5 0 7 5 4 10 -3 6 -1 10 4 10 6 0 11 -4 11 -9z m31 -38 c11 -15 11 -16 -1 -6 -9 9 -19 9 -34 2 -20 -10 -20 -10 -2 5 24 19 21 20 37 -1z m667 -19 c14 -4 22 -14 22 -27 0 -16 -3 -18 -12 -9 -17 17 -68 15 -90 -5 -10 -9 -18 -27 -18 -41 0 -30 29 -80 49 -84 22 -5 52 36 53 72 1 39 9 31 17 -17 9 -52 48 -75 88 -52 35 19 45 19 66 -3 21 -20 6 -33 -29 -24 -26 7 -76 -2 -70 -13 2 -3 -34 -6 -79 -5 -46 0 -82 -3 -80 -7 7 -10 75 -17 75 -7 0 11 51 10 68 -1 19 -11 -8 -22 -37 -14 -12 3 -21 1 -21 -6 0 -8 -6 -9 -17 -2 -10 5 -29 8 -43 7 -14 -1 -37 1 -51 5 -15 4 -32 3 -40 -2 -8 -4 -19 -3 -26 3 -8 6 -16 8 -20 5 -3 -4 -12 -2 -20 4 -7 7 -30 14 -51 16 -20 2 -41 8 -47 14 -5 5 -26 9 -46 9 -36 0 -61 23 -36 34 7 2 4 5 -6 5 -10 1 -16 5 -12 11 3 5 12 7 20 3 8 -3 15 0 15 6 0 6 6 11 13 11 7 0 35 18 62 41 27 22 57 45 67 50 17 9 108 6 125 -4 4 -3 24 3 43 14 40 21 38 21 68 13z m375 -20 c21 -7 22 -18 2 -34 -12 -10 -18 -8 -34 11 l-18 23 -16 -30 c-14 -26 -16 -26 -17 -7 0 12 -3 29 -7 39 -5 15 -2 16 33 10 21 -4 47 -9 57 -12z m142 -39 c50 -18 50 -18 34 2 -9 10 1 7 25 -9 73 -46 73 -72 0 -88 -50 -11 -84 7 -77 42 4 18 -2 27 -21 36 -27 12 -35 32 -13 32 6 -1 30 -7 52 -15z m-205 -90 c16 -19 12 -23 -29 -31 l-33 -7 17 27 c20 30 28 32 45 11z m-810 -68 c0 -20 5 -23 34 -22 28 0 33 -2 24 -12 -9 -11 -6 -12 16 -3 15 5 32 8 37 4 5 -3 9 0 9 5 0 6 -4 11 -10 11 -5 0 -10 5 -10 10 0 7 7 7 20 0 17 -9 18 -14 9 -31 -10 -19 -8 -20 20 -16 17 3 31 4 31 2 0 -2 3 -11 7 -21 5 -14 3 -16 -13 -10 -15 6 -16 5 -7 -5 10 -10 16 -9 28 1 8 7 18 10 22 6 3 -3 1 -6 -5 -6 -7 0 -12 -4 -12 -10 0 -5 24 -8 55 -6 31 2 58 -1 61 -6 3 -5 2 -8 -3 -7 -22 4 -24 -3 -8 -21 14 -15 15 -20 4 -20 -11 0 -11 -2 1 -10 13 -9 13 -11 0 -20 -8 -5 -10 -10 -5 -10 21 0 38 19 33 38 -4 15 -1 18 13 15 10 -3 17 -9 14 -13 -3 -5 0 -10 6 -12 9 -3 9 -10 -1 -28 l-13 -25 20 20 c16 15 18 23 9 34 -9 12 -8 13 6 9 9 -4 24 -1 34 6 9 7 26 11 37 8 11 -3 18 -1 15 4 -3 5 0 14 7 21 10 10 14 9 19 -2 4 -11 11 -12 36 -4 16 6 30 15 30 21 0 5 5 6 11 3 6 -4 8 -14 5 -22 -3 -8 -1 -11 4 -8 6 3 10 1 10 -4 0 -15 27 -14 36 1 4 7 3 8 -4 4 -8 -5 -10 -2 -6 8 3 9 12 16 20 16 8 0 14 5 14 10 0 6 5 10 11 10 5 0 8 -4 5 -9 -10 -16 5 -40 21 -34 11 4 14 2 9 -8 -3 -8 -9 -22 -12 -31 -8 -23 -37 -31 -75 -23 -22 5 -29 4 -25 -4 6 -10 -13 -16 -37 -12 -4 1 -10 -6 -13 -14 -3 -8 -11 -12 -16 -9 -6 4 -2 -6 8 -21 11 -17 23 -25 36 -22 38 10 17 -23 -23 -35 -35 -10 -49 -9 -91 6 -47 16 -51 16 -76 0 -41 -26 -49 -48 -53 -136 0 -10 -19 5 -52 42 -29 31 -60 60 -70 63 -10 3 -21 15 -24 26 -3 12 -9 21 -14 21 -16 0 -186 175 -182 188 3 6 9 9 15 6 7 -4 7 0 0 12 -5 11 -7 25 -4 33 3 8 0 11 -6 7 -6 -3 -14 4 -18 16 -4 13 -2 24 5 26 6 2 9 8 5 13 -3 5 0 9 5 9 6 0 11 -10 11 -23z m1270 -52 c-12 -33 -7 -43 15 -25 12 10 15 10 15 -4 0 -9 -4 -16 -10 -16 -5 0 -10 -4 -10 -9 0 -18 -102 -113 -116 -107 -23 9 -17 22 36 74 28 28 45 52 39 54 -8 3 -7 8 3 18 8 8 17 24 21 34 4 10 10 17 13 14 2 -3 0 -18 -6 -33z m-122 -180 c-2 -23 -24 -42 -36 -30 -7 7 19 55 30 55 4 0 7 -11 6 -25z m-304 -55 c-16 -16 -66 -17 -71 -2 -3 8 8 12 38 12 30 0 40 -3 33 -10z m-1349 -170 c4 -16 11 -32 16 -35 10 -7 12 -55 3 -79 -12 -30 -23 -16 -21 26 1 32 -2 43 -13 43 -10 0 -14 9 -12 25 1 14 3 33 3 43 0 26 17 11 24 -23z m746 -29 c104 -33 191 -84 262 -154 20 -20 37 -40 36 -44 -4 -25 3 -45 14 -40 7 3 14 -3 14 -12 1 -9 10 -34 19 -56 10 -22 19 -62 20 -88 2 -55 1 -52 32 -61 16 -5 22 -3 22 7 0 8 7 17 15 21 8 3 15 17 15 31 0 14 5 25 10 25 6 0 13 8 17 18 3 9 16 31 28 47 12 17 38 62 58 100 56 112 92 154 150 179 59 26 141 45 207 50 66 4 253 -29 305 -54 81 -39 129 -127 177 -323 16 -67 36 -129 44 -138 20 -23 19 -135 -1 -143 -9 -3 -86 -15 -173 -26 -229 -30 -228 -30 -211 -41 10 -6 2 -9 -26 -9 -23 0 -45 -4 -51 -10 -14 -14 -142 -19 -204 -8 -30 5 -63 17 -72 25 -17 15 -18 15 -18 -3 0 -15 -2 -16 -9 -5 -5 7 -14 10 -20 7 -6 -4 -11 -2 -11 3 0 15 -37 14 -43 -1 -3 -8 -6 -6 -6 4 -1 10 -4 17 -8 16 -5 0 -16 2 -27 7 -11 5 -26 4 -37 -3 -11 -7 -20 -8 -24 -2 -3 5 -48 8 -103 5 -112 -5 -116 -5 -159 -27 -28 -14 -33 -14 -33 -2 0 19 -15 18 -35 -3 -13 -12 -19 -13 -24 -4 -6 9 -13 5 -25 -13 -10 -17 -26 -26 -42 -26 -14 0 -35 -5 -47 -11 -11 -7 -48 -13 -81 -15 -34 -2 -88 -6 -121 -8 -55 -4 -63 -2 -106 29 -32 24 -52 32 -68 28 -17 -4 -23 -1 -28 16 -3 12 -13 21 -24 21 -11 0 -19 4 -19 8 0 5 -52 17 -115 27 -63 11 -121 22 -128 27 -7 4 -12 30 -12 68 1 47 -3 61 -16 65 -24 8 -79 72 -79 92 1 17 1 17 14 1 7 -10 18 -18 23 -18 5 0 20 -11 33 -25 35 -37 57 -33 68 13 68 292 106 368 210 413 24 10 41 23 37 28 -8 14 42 18 185 15 95 -1 141 -7 191 -23z m-827 -112 c11 -42 16 -87 13 -100 -9 -34 -64 -119 -78 -119 -16 0 -2 167 18 220 4 8 5 18 5 23 -1 4 2 7 7 7 4 0 7 14 5 32 -7 54 11 17 30 -63z m2406 -296 c0 -19 -3 -24 -10 -17 -6 6 -8 18 -4 27 9 24 14 21 14 -10z"></path>  <path d="M1673 3708 c-23 -26 -36 -58 -24 -58 5 0 11 8 14 18 4 9 14 27 23 40 9 12 14 22 12 22 -2 0 -14 -10 -25 -22z"></path>  <path d="M1343 3213 c4 -3 2 -12 -4 -20 -9 -9 -8 -13 0 -13 6 0 11 2 11 4 0 2 3 11 6 20 4 10 1 16 -7 16 -7 0 -9 -3 -6 -7z"></path>  <path d="M1628 3213 c6 -2 10 -9 6 -14 -3 -5 0 -9 5 -9 6 0 11 7 11 15 0 8 -8 15 -17 14 -11 0 -13 -3 -5 -6z"></path>  <path d="M1977 2753 c-10 -9 -9 -113 1 -113 17 0 41 26 42 45 5 53 0 75 -18 75 -10 0 -22 -3 -25 -7z"></path>  <path d="M1548 2080 c-135 -21 -182 -80 -222 -273 -17 -80 -21 -177 -8 -177 20 1 42 29 36 46 -4 14 -3 16 4 5 16 -22 29 -5 30 44 2 30 -2 45 -10 45 -15 0 16 21 54 38 23 9 26 9 21 -4 -4 -12 3 -14 35 -12 22 2 40 7 39 12 -2 12 51 25 127 31 32 2 67 7 77 10 11 4 19 2 19 -4 0 -6 -8 -11 -17 -11 -15 0 -16 -2 -3 -9 17 -11 26 -7 40 20 8 14 8 19 -1 17 -7 -2 -17 7 -24 19 -8 15 -15 19 -26 12 -8 -5 -18 -9 -24 -9 -5 0 -3 5 5 10 13 8 13 10 -2 10 -9 0 -19 -4 -22 -9 -3 -4 -23 -5 -43 -2 -21 4 -51 4 -68 1 -16 -3 -52 -1 -80 6 l-50 13 74 -6 c53 -4 72 -2 67 6 -4 6 -12 9 -17 6 -5 -4 -18 0 -30 8 -11 8 -16 18 -11 21 5 3 15 -1 22 -9 14 -17 43 -8 36 11 -6 16 29 20 38 5 3 -5 28 -2 57 6 42 12 56 13 74 3 13 -7 33 -10 44 -7 12 3 21 2 21 -2 0 -4 21 -8 48 -9 71 -1 126 -13 139 -31 7 -9 13 -12 13 -7 0 5 7 3 15 -4 13 -11 14 -10 9 4 -3 9 -10 16 -16 16 -5 0 -6 10 -2 22 6 20 5 21 -10 9 -14 -12 -16 -12 -10 2 7 18 -28 57 -52 57 -10 0 -14 5 -10 15 4 12 0 14 -19 9 -16 -4 -25 -2 -25 6 0 6 6 8 13 4 8 -5 9 -4 2 3 -30 31 -245 50 -357 33z"></path>  <path d="M2705 2081 c-101 -19 -184 -81 -226 -169 -60 -130 -83 -299 -45 -341 35 -39 226 -90 226 -60 0 17 180 1 201 -18 13 -11 33 -13 90 -8 244 21 289 51 289 196 0 121 -54 293 -107 341 -49 45 -112 61 -253 64 -74 1 -153 -1 -175 -5z m91 -135 c-1 -8 -7 -20 -14 -28 -6 -8 -8 -19 -4 -23 4 -5 2 -5 -5 -1 -7 4 -10 13 -7 20 3 8 1 17 -4 20 -5 3 -12 -5 -14 -19 -3 -13 -2 -22 2 -20 13 8 35 -27 32 -51 -2 -14 2 -24 8 -24 7 0 10 7 6 15 -6 16 9 21 19 6 3 -5 19 -12 35 -16 27 -6 30 -11 36 -56 6 -47 24 -64 39 -39 4 6 10 8 15 5 4 -3 13 2 20 11 7 8 27 24 44 36 24 15 22 11 -10 -18 -51 -48 -109 -84 -134 -84 -26 0 -50 -10 -50 -22 0 -5 3 -7 8 -5 4 3 22 -3 40 -13 l33 -18 -49 -7 c-59 -8 -85 -21 -60 -30 10 -4 22 -4 28 0 5 3 10 2 10 -2 0 -5 -13 -14 -30 -20 -16 -6 -30 -8 -30 -4 0 8 -8 9 -55 12 -14 1 -25 6 -25 11 0 5 -8 8 -18 6 -22 -4 -142 55 -166 81 -10 11 -20 35 -23 54 l-4 34 50 -2 c28 -1 51 2 51 6 0 5 -4 9 -10 9 -21 0 -10 42 12 48 21 5 21 6 2 13 -16 6 -16 8 -2 8 9 1 20 -4 23 -9 7 -12 25 -4 25 11 0 14 -68 11 -73 -3 -3 -7 -6 -4 -6 7 -1 33 118 108 193 121 17 3 32 7 35 9 8 8 29 -15 27 -29z"></path>  <path d="M1774 1875 c21 -16 32 -13 21 4 -3 6 -14 11 -23 11 -15 -1 -15 -2 2 -15z"></path>  <path d="M1340 1632 c-17 -14 -21 -24 -15 -40 7 -25 43 -62 59 -62 5 0 0 9 -12 20 -12 12 -19 27 -15 35 3 9 2 15 -3 14 -25 -4 -24 3 2 26 33 28 18 35 -16 7z"></path>  <path d="M3597 4204 c-8 -8 1 -24 14 -24 5 0 9 7 9 15 0 15 -12 20 -23 9z"></path>  <path d="M3713 4135 c-22 -21 -31 -55 -15 -55 11 0 39 35 47 59 8 27 -4 25 -32 -4z"></path>  </g> <g id="layer105" fill="#807a86" stroke="none">  <path d="M3437 4335 c-18 -13 -18 -13 0 -18 16 -4 15 -6 -4 -12 -13 -4 -24 -12 -24 -19 -1 -6 -2 -20 -3 -31 0 -11 -5 -26 -9 -33 -5 -7 -5 -21 -2 -33 4 -11 2 -25 -3 -32 -13 -17 -8 -120 7 -125 6 -2 8 -8 5 -13 -3 -6 1 -25 10 -44 9 -18 13 -40 10 -48 -3 -8 -1 -18 5 -21 7 -5 7 -15 1 -32 -6 -14 -10 -36 -10 -50 0 -14 -15 -40 -35 -62 l-36 -37 23 44 c27 55 31 110 11 168 -14 41 -53 74 -61 52 -2 -5 -12 -9 -22 -9 -24 0 -31 -12 -20 -30 7 -12 12 -11 29 4 18 16 21 17 21 4 0 -9 -11 -19 -25 -22 -28 -7 -35 -26 -7 -21 9 1 11 0 5 -2 -16 -6 -16 -3 5 -55 21 -50 14 -130 -13 -157 -14 -15 -15 -13 -4 17 17 48 6 132 -24 194 -43 88 -147 190 -242 237 -44 22 -92 43 -107 46 -14 4 -34 15 -44 26 -9 10 -25 19 -34 19 -9 0 -21 5 -27 11 -6 6 -36 23 -66 38 -31 16 -54 31 -50 35 4 3 -9 6 -28 6 -19 0 -47 -1 -64 -1 -69 0 -113 -4 -109 -11 2 -4 -5 -9 -16 -13 -18 -6 -24 -17 -21 -37 2 -12 -27 -10 -34 2 -3 6 1 10 9 10 9 0 16 7 16 15 0 18 -5 19 -28 4 -12 -8 -17 -20 -14 -35 3 -18 -2 -26 -19 -33 -13 -5 -18 -10 -11 -10 23 -2 12 -16 -14 -17 -34 -2 -36 -6 -24 -38 13 -35 34 -56 55 -56 9 0 13 -5 10 -10 -4 -6 -16 -8 -27 -4 -17 5 -20 3 -16 -14 4 -14 2 -19 -8 -15 -7 2 -10 12 -7 21 4 10 2 14 -3 9 -11 -10 -12 -107 -2 -101 5 3 8 0 8 -5 0 -6 -4 -11 -9 -11 -5 0 -12 -7 -15 -16 -4 -11 -2 -15 8 -11 10 4 13 1 9 -9 -3 -8 2 -21 12 -28 13 -9 15 -15 7 -20 -20 -12 -15 -56 6 -56 15 0 105 -28 152 -47 8 -3 18 -5 23 -5 4 1 7 -3 7 -8 0 -6 5 -10 10 -10 13 0 86 -52 138 -97 40 -35 63 -44 41 -15 -16 20 19 -7 64 -50 16 -16 35 -28 42 -28 8 0 19 -9 25 -20 6 -11 14 -19 18 -18 14 4 52 -13 52 -23 0 -6 4 -7 10 -4 6 3 7 -1 4 -10 -5 -12 -2 -16 12 -13 12 2 23 -5 29 -19 7 -17 15 -21 30 -17 16 4 17 3 5 -5 -13 -10 -8 -15 12 -12 4 0 24 -23 43 -52 24 -37 33 -60 29 -72 -5 -13 -4 -16 4 -11 12 7 14 -1 16 -66 1 -36 16 -48 16 -13 0 34 7 30 12 -7 2 -15 8 -31 13 -35 4 -4 5 -2 1 5 -4 6 -2 12 5 12 7 0 10 -11 6 -32 -3 -22 1 -39 11 -50 8 -10 10 -18 4 -18 -6 0 -14 5 -17 10 -11 18 -23 10 -18 -11 5 -16 2 -20 -8 -17 -8 3 -13 11 -12 17 2 6 -2 11 -7 11 -6 0 -9 -20 -7 -48 2 -26 0 -56 -4 -67 -8 -20 -10 -12 -13 62 -1 29 -13 38 -29 25 -7 -6 -23 -9 -35 -5 -13 3 -22 1 -22 -6 0 -6 -7 -8 -17 -4 -14 6 -12 9 12 19 22 9 32 9 37 1 15 -24 19 3 4 31 -11 22 -12 32 -3 41 8 8 5 11 -15 11 -15 0 -28 6 -31 13 -3 9 -7 9 -17 0 -9 -9 -8 -14 9 -22 24 -13 29 -44 6 -35 -8 4 -15 12 -15 20 0 20 -27 17 -40 -3 -10 -16 -11 -16 -5 2 11 34 10 40 -2 38 -9 -2 -13 8 -12 30 1 23 3 26 6 10 5 -26 23 -31 23 -8 0 8 9 15 20 15 21 0 19 18 -8 55 -13 19 -13 18 -7 -12 4 -21 3 -33 -4 -33 -6 0 -11 9 -11 20 0 12 -10 24 -24 29 -13 5 -26 17 -29 25 -4 9 -15 16 -25 16 -15 0 -18 5 -14 25 2 15 0 25 -7 25 -6 0 -11 -7 -11 -16 0 -10 -6 -14 -14 -11 -7 3 -19 0 -25 -6 -13 -13 -15 2 -2 22 5 7 13 11 19 7 5 -3 13 10 17 30 8 43 0 57 -10 17 -5 -22 -8 -25 -15 -12 -5 8 -7 27 -6 42 2 15 -1 27 -5 27 -5 0 -9 -5 -9 -11 0 -5 -5 -7 -11 -3 -13 8 -8 -38 6 -48 5 -4 6 -10 2 -14 -4 -4 -15 0 -24 9 -14 13 -14 17 -3 17 10 0 9 4 -4 13 -9 7 -16 17 -15 22 4 19 -14 75 -23 75 -6 0 -7 -8 -3 -17 12 -28 14 -83 4 -83 -5 0 -9 4 -9 8 0 4 -9 8 -20 9 -12 1 -34 13 -51 27 -16 14 -36 23 -44 20 -18 -7 -20 -24 -3 -24 6 0 8 -3 5 -6 -11 -11 -35 15 -57 62 -19 38 -24 42 -36 30 -8 -8 -18 -25 -23 -38 -8 -18 -10 -19 -10 -5 -1 10 -6 15 -11 12 -6 -4 -8 -11 -5 -16 4 -5 -1 -9 -10 -9 -11 0 -13 -4 -8 -12 10 -16 10 -68 1 -61 -5 2 -8 -1 -8 -7 0 -7 -7 -10 -15 -6 -11 4 -15 -1 -15 -19 0 -14 -4 -25 -10 -25 -5 0 -10 -5 -10 -11 0 -6 7 -9 15 -6 8 4 17 2 20 -3 4 -6 1 -10 -4 -10 -6 0 -11 -9 -11 -21 0 -11 -5 -29 -11 -40 -8 -16 -5 -26 19 -53 25 -29 29 -41 27 -82 -1 -27 -6 -57 -10 -68 -4 -10 -4 -21 1 -25 20 -14 2 -67 -19 -54 -7 4 -6 -1 2 -10 12 -15 12 -19 -5 -32 -15 -11 -16 -17 -6 -23 7 -5 14 -23 17 -42 5 -39 20 -52 58 -47 15 2 27 0 27 -4 0 -9 48 -26 84 -28 13 -1 16 -6 12 -18 -7 -17 -6 -17 10 -1 16 16 20 15 65 -8 56 -28 69 -30 69 -9 0 8 5 15 11 15 7 0 9 10 4 27 l-6 27 21 -25 c12 -13 19 -19 16 -12 -4 6 -2 14 3 18 5 3 8 15 6 26 -3 14 0 19 9 16 8 -3 16 3 19 14 3 10 10 19 17 19 21 0 60 -49 60 -75 0 -14 7 -28 15 -31 8 -4 15 -14 15 -23 0 -9 7 -26 15 -37 8 -12 11 -24 8 -28 -3 -3 -1 -6 5 -6 7 0 12 -10 12 -21 0 -12 7 -27 15 -33 20 -14 30 -137 12 -148 -9 -6 -8 -10 3 -18 10 -6 11 -10 3 -10 -8 0 -13 -13 -13 -30 0 -16 -4 -30 -10 -30 -5 0 -10 -5 -10 -11 0 -5 4 -8 9 -4 13 8 7 -41 -7 -58 -7 -8 -14 -27 -16 -43 -2 -16 -7 -45 -10 -64 -6 -33 -6 -33 6 -10 l12 25 4 -28 c2 -19 8 -27 20 -25 13 2 17 -5 17 -32 0 -19 -3 -38 -8 -41 -4 -3 16 -11 45 -19 109 -27 176 -135 228 -363 12 -53 26 -100 31 -103 5 -2 22 2 40 11 17 9 33 15 35 12 2 -2 -11 -12 -28 -21 -33 -18 -33 -18 -30 -87 3 -51 0 -70 -10 -74 -7 -3 -80 -16 -163 -29 -82 -13 -134 -25 -115 -25 19 -1 42 -6 50 -11 10 -6 3 -7 -24 -3 -28 4 -37 3 -32 -5 4 -7 15 -12 24 -13 14 0 14 -2 2 -6 -8 -4 -29 -17 -47 -30 -33 -26 -101 -43 -88 -24 3 6 -1 11 -9 11 -9 0 -16 -4 -16 -10 0 -5 -21 -10 -46 -10 -27 0 -43 4 -39 10 3 6 2 10 -4 10 -6 0 -9 -12 -8 -27 2 -23 -2 -28 -20 -26 -20 2 -22 -1 -16 -28 3 -16 2 -29 -3 -28 -5 1 -16 1 -24 0 -12 -1 -12 -3 -2 -10 10 -6 10 -10 -3 -21 -19 -16 -19 -29 1 -52 15 -16 15 -18 1 -24 -9 -3 -13 -12 -11 -19 3 -7 -5 -23 -18 -34 -19 -19 -20 -23 -8 -31 8 -5 10 -10 4 -10 -7 0 -15 -7 -18 -16 -5 -13 0 -12 29 5 41 24 45 25 45 11 0 -5 -7 -10 -15 -10 -9 0 -15 -9 -15 -25 0 -17 6 -25 17 -25 13 0 14 -3 5 -12 -7 -7 -12 -25 -12 -40 0 -25 -2 -27 -20 -18 -21 11 -42 10 -52 -5 -8 -11 -1 -25 13 -25 6 0 7 5 4 10 -3 6 0 10 8 10 23 0 27 -11 11 -28 -14 -14 -14 -16 1 -24 12 -7 15 -17 10 -40 -7 -28 -5 -29 15 -23 21 7 22 5 16 -21 -4 -16 -14 -33 -22 -37 -8 -4 -14 -13 -14 -18 0 -6 4 -8 9 -4 5 3 13 0 17 -7 4 -7 4 -10 -1 -6 -4 4 -14 3 -21 -2 -6 -6 -16 -10 -20 -9 -22 4 -44 -2 -44 -11 0 -7 6 -7 20 0 23 12 25 8 8 -20 -10 -16 -10 -22 -1 -28 8 -5 8 -12 -2 -25 -13 -18 -14 -17 -20 2 -3 12 -13 21 -21 21 -8 0 -14 5 -14 11 0 6 -7 3 -16 -6 -9 -9 -13 -19 -10 -23 4 -3 10 -1 14 5 5 8 13 9 22 3 12 -7 12 -12 3 -21 -10 -10 -18 -10 -37 -1 -21 9 -27 8 -36 -6 -10 -16 -10 -16 -8 0 2 9 0 17 -4 17 -23 2 -29 0 -23 -9 3 -5 -1 -10 -10 -10 -9 0 -14 -4 -11 -9 3 -5 -1 -14 -9 -21 -10 -9 -12 -18 -4 -37 5 -15 8 -32 5 -40 -3 -7 0 -12 7 -10 6 1 13 -8 15 -21 3 -20 1 -21 -24 -12 -22 9 -25 8 -17 -2 22 -27 -3 -73 -34 -61 -8 3 -13 -2 -13 -16 0 -24 -10 -27 -30 -8 -8 6 1 -5 19 -25 19 -21 42 -38 50 -38 11 0 8 -5 -7 -16 -13 -9 -27 -27 -32 -40 -6 -15 -18 -24 -30 -24 -22 0 -80 26 -80 36 0 3 5 2 11 -1 6 -4 28 -8 49 -10 30 -3 37 0 33 11 -3 8 -9 11 -14 8 -5 -3 -9 2 -9 10 0 8 -11 27 -25 42 -14 15 -25 21 -25 14 0 -19 -60 -91 -71 -84 -5 3 -9 1 -9 -4 0 -5 -11 -9 -24 -9 -14 0 -32 -8 -42 -17 -15 -16 -18 -16 -37 1 -11 10 -17 12 -13 5 6 -10 2 -10 -20 0 l-28 13 30 7 c27 7 26 7 -6 4 -52 -6 -116 8 -112 23 2 8 -3 11 -12 8 -22 -9 -30 10 -14 31 8 12 24 17 45 16 23 -1 30 2 26 13 -3 8 0 13 8 11 7 -2 13 2 14 7 0 6 4 16 9 24 7 11 10 11 17 0 6 -10 9 -10 9 -2 0 19 -21 27 -31 12 -5 -8 -9 -9 -9 -4 0 6 5 16 12 23 14 14 0 16 -21 3 -8 -5 -11 -16 -6 -30 6 -20 5 -20 -20 -9 -18 8 -22 14 -13 20 9 5 9 8 1 8 -8 0 -8 6 0 24 10 20 15 22 26 13 12 -10 12 -9 1 12 l-13 25 -24 -47 c-13 -26 -26 -47 -29 -47 -2 0 -1 8 4 17 6 13 2 24 -15 40 -13 12 -23 19 -23 15 0 -4 -13 8 -29 27 -17 19 -28 38 -25 43 3 4 -1 8 -8 8 -9 0 -9 3 2 10 13 9 13 11 0 19 -9 6 -19 6 -26 1 -15 -13 -24 -2 -24 31 0 20 -4 27 -14 23 -11 -4 -14 2 -11 23 3 31 -13 47 -32 32 -9 -8 -11 -2 -7 28 4 25 3 34 -4 25 -7 -11 -10 -11 -16 3 -3 9 -11 13 -18 9 -8 -5 -5 -13 11 -25 12 -10 17 -20 11 -24 -13 -8 -50 12 -50 28 0 8 -3 8 -9 -2 -6 -9 -11 -10 -15 -2 -4 6 -4 11 1 11 10 0 -19 20 -30 20 -5 0 -5 -5 -1 -12 4 -6 3 -8 -3 -5 -14 9 -4 58 11 50 6 -3 7 -2 3 3 -5 5 -16 9 -25 9 -9 0 -16 6 -15 13 2 6 -4 12 -12 12 -8 0 -15 5 -15 12 0 6 -3 9 -6 6 -3 -4 -1 -16 6 -27 13 -26 9 -26 -28 -3 -23 14 -27 20 -17 29 7 6 17 9 21 5 5 -4 2 1 -5 11 -8 10 -20 16 -28 13 -7 -3 -13 -1 -13 4 0 6 -8 10 -17 10 -17 1 -17 1 0 11 21 12 22 25 1 33 -8 3 -12 2 -9 -4 3 -6 -1 -7 -9 -4 -9 3 -17 14 -17 23 -4 39 -6 47 -13 64 -5 9 -14 17 -22 17 -8 0 -14 5 -14 10 0 6 -9 19 -20 30 -29 29 -25 48 5 20 14 -13 25 -18 25 -12 0 7 -5 12 -11 12 -5 0 -8 4 -4 9 3 5 -3 12 -13 15 -27 9 -62 49 -67 77 -8 41 -17 112 -18 147 0 17 -4 32 -8 32 -7 0 -22 94 -17 107 2 5 7 7 11 5 5 -1 5 3 1 9 -5 9 -2 10 10 6 10 -4 20 -7 22 -7 3 0 2 -5 -1 -11 -4 -5 5 -28 20 -50 31 -43 42 -51 24 -16 l-12 22 22 -19 c21 -19 22 -19 15 -1 -6 15 -4 17 9 12 28 -11 19 0 -18 22 -19 11 -35 27 -35 35 0 10 -22 18 -72 26 -40 7 -78 16 -85 22 -6 5 -11 32 -10 62 1 51 0 54 -48 97 -35 31 -49 50 -47 65 3 18 -1 21 -23 17 -14 -3 -28 -9 -31 -14 -3 -5 -11 -9 -17 -9 -7 0 -6 4 3 10 13 8 12 11 -5 24 -11 8 -21 10 -23 5 -2 -5 -8 -9 -13 -9 -10 0 21 67 51 110 20 29 53 123 41 116 -5 -3 -18 22 -29 57 -12 34 -21 55 -22 46 0 -14 12 -57 27 -99 15 -40 -13 -113 -65 -168 -51 -55 -56 -46 -48 88 4 65 12 134 17 152 6 18 13 88 16 156 3 67 10 122 15 122 20 0 66 -31 82 -55 19 -30 31 -26 31 10 1 14 -1 22 -4 20 -2 -3 -20 7 -38 21 -19 14 -37 24 -40 21 -8 -9 -41 26 -53 57 -22 60 48 150 145 182 41 14 67 46 51 61 -3 4 -6 -1 -6 -10 0 -9 -4 -17 -9 -17 -11 0 -2 38 10 46 5 3 6 17 3 32 -4 21 -3 24 5 12 9 -13 11 -13 11 3 0 9 4 17 9 17 5 0 12 7 15 16 3 8 2 12 -4 9 -6 -3 -7 1 -4 9 3 9 10 13 15 10 5 -3 9 9 9 26 0 18 -4 29 -10 25 -6 -3 -10 -13 -10 -21 0 -8 -4 -14 -10 -14 -16 0 -12 15 10 35 15 14 19 27 16 49 -3 16 -1 37 5 47 6 11 5 20 -1 24 -5 3 -10 21 -10 38 0 22 3 28 9 18 5 -7 6 -22 4 -32 -3 -10 -1 -19 5 -19 19 0 19 25 0 53 -18 25 -18 29 -3 59 8 18 22 64 30 103 8 38 24 82 35 97 14 19 16 28 7 31 -7 3 -5 8 7 13 49 19 64 50 69 134 1 19 7 34 13 33 7 -1 11 13 10 37 -1 24 3 40 9 40 6 0 11 15 11 34 0 26 -4 33 -15 29 -11 -3 -12 -2 -4 4 13 10 18 33 10 53 -12 33 -15 60 -5 60 6 0 6 6 -2 15 -6 8 -9 19 -6 24 4 5 1 13 -5 16 -5 4 -8 13 -5 21 3 8 1 14 -3 14 -5 0 -7 12 -5 28 16 95 10 162 -13 162 -10 0 -12 6 -8 19 12 40 -14 29 -76 -32 -102 -98 -129 -140 -129 -197 0 -21 9 -36 35 -56 20 -15 34 -29 31 -31 -7 -8 -112 46 -131 67 -19 21 -45 27 -45 11 0 -16 -101 23 -160 61 -30 20 -92 54 -137 76 l-81 41 -71 -75 c-282 -296 -493 -727 -572 -1169 -21 -115 -24 -161 -24 -395 0 -234 3 -280 24 -395 99 -554 381 -1040 813 -1401 325 -271 772 -462 1208 -514 109 -13 431 -13 540 0 273 33 543 116 796 245 237 121 414 254 609 456 333 346 540 759 622 1247 25 151 25 582 0 727 -68 390 -211 725 -439 1033 -92 125 -313 352 -350 359 -17 3 -25 10 -21 19 9 25 -7 15 -53 -33 -25 -26 -49 -42 -52 -37 -4 6 -22 16 -39 23 -18 8 -33 17 -33 22 0 5 -10 9 -22 9 -17 0 -19 3 -10 12 7 7 12 28 12 48 l-1 35 -20 -27 c-11 -16 -27 -28 -35 -28 -17 0 -19 -17 -1 -23 9 -3 9 -8 -2 -21 -13 -15 -11 -17 22 -14 19 1 41 -3 49 -9 13 -11 18 -13 37 -13 5 0 13 -9 16 -21 5 -16 -3 -29 -37 -60 -63 -56 -93 -52 -43 7 30 35 32 48 6 39 -12 -3 -21 0 -25 10 -8 22 -25 18 -19 -5 3 -11 0 -20 -6 -20 -6 0 -11 13 -11 30 0 22 -4 28 -15 24 -18 -7 -21 31 -4 42 8 5 8 8 0 13 -8 5 -8 22 -2 54 4 26 5 47 0 47 -5 0 -7 6 -5 13 3 6 7 25 11 41 5 24 3 28 -11 22 -17 -6 -17 -6 -1 12 16 18 15 19 -21 39 -32 18 -40 19 -55 8z m14 -147 c4 -45 -11 -75 -31 -63 -8 5 -6 11 6 19 13 10 14 17 5 34 -10 18 -9 22 4 22 8 0 16 -6 16 -12z m-216 -1120 c3 -3 1 -16 -4 -29 -9 -23 -10 -23 -10 -2 -1 12 -9 27 -18 32 -16 10 -15 10 4 8 12 -2 25 -6 28 -9z m-145 -29 c0 -6 -5 -7 -11 -3 -8 5 -8 1 0 -14 15 -29 14 -35 -10 -50 -21 -13 -21 -13 -15 23 5 25 4 35 -3 30 -6 -3 -11 1 -11 9 0 8 8 16 18 19 20 4 32 -1 32 -14z m151 -54 c8 5 9 1 4 -14 -4 -13 -2 -21 5 -21 6 0 8 -4 5 -10 -3 -5 -1 -10 5 -10 6 0 8 -4 5 -10 -10 -15 -52 -12 -59 5 -3 8 -1 15 3 15 5 0 11 -6 14 -12 2 -7 7 -10 11 -7 7 7 -8 25 -43 49 -20 13 -20 15 -4 21 10 4 23 2 30 -3 7 -5 17 -7 24 -3z m29 -115 c8 -5 11 -12 8 -16 -10 -9 -38 3 -38 16 0 12 10 13 30 0z m14 -62 c-3 -4 -11 -2 -18 5 -10 8 -11 14 -3 19 13 8 29 -11 21 -24z m255 -346 c7 -16 9 -40 6 -54 -5 -20 -12 -24 -40 -23 -23 0 -31 -3 -28 -12 5 -13 -18 -18 -30 -7 -3 3 3 23 14 45 12 21 18 43 14 49 -3 5 4 14 17 19 34 14 34 14 47 -17z m19 -147 c7 -14 12 -48 12 -74 0 -27 7 -86 15 -132 8 -46 17 -133 21 -192 l7 -109 -24 4 c-33 4 -89 89 -89 134 0 19 6 60 14 92 47 192 49 205 32 246 -9 21 -16 42 -16 47 0 18 17 8 28 -16z m-54 -42 c3 -10 11 -25 17 -34 14 -18 -12 -118 -36 -143 -8 -8 -15 -19 -15 -25 0 -13 -29 -41 -42 -41 -6 0 -8 13 -4 33 13 74 17 167 8 167 -6 0 -8 9 -5 20 3 11 14 20 24 20 10 0 21 5 24 10 9 15 22 12 29 -7z m14 -514 c13 -22 20 -39 17 -39 -3 0 -24 10 -45 23 -44 25 -53 51 -17 53 17 1 29 -9 45 -37z m-85 -74 c-10 -7 -22 -10 -28 -7 -5 4 -2 8 8 10 9 2 17 11 17 21 0 27 15 36 18 11 2 -12 -4 -27 -15 -35z m-947 -1357 c14 20 29 10 21 -13 -9 -21 -47 -20 -47 3 0 14 -2 15 -10 2 -5 -8 -12 -11 -17 -7 -4 5 -1 12 7 17 10 7 18 5 24 -4 8 -12 12 -12 22 2z"></path>  <path d="M2316 4219 c-11 -10 -15 -19 -10 -19 12 1 44 25 44 34 0 11 -15 5 -34 -15z"></path>  <path d="M3597 4204 c-8 -8 1 -24 14 -24 5 0 9 7 9 15 0 15 -12 20 -23 9z"></path>  <path d="M3713 4135 c-22 -21 -31 -55 -15 -55 11 0 39 35 47 59 8 27 -4 25 -32 -4z"></path>  <path d="M2400 3522 c0 -21 2 -22 15 -12 8 7 15 18 15 25 0 6 -7 12 -15 12 -9 0 -15 -10 -15 -25z"></path>  <path d="M2660 3511 c0 -17 2 -31 4 -31 8 0 13 51 5 56 -5 3 -9 -9 -9 -25z"></path>  <path d="M2686 3487 c3 -8 11 -14 18 -14 8 0 12 6 9 14 -3 7 -11 13 -19 13 -7 0 -11 -6 -8 -13z"></path>  <path d="M3062 3310 c7 -11 16 -20 21 -20 4 0 3 9 -3 20 -6 11 -15 20 -20 20 -6 0 -5 -9 2 -20z"></path>  <path d="M3005 3304 c33 -26 55 -36 55 -25 0 5 -14 17 -32 25 -39 20 -49 20 -23 0z"></path>  <path d="M2353 2805 c-7 -8 -13 -19 -13 -24 0 -6 -7 -8 -16 -4 -12 5 -15 -1 -12 -28 2 -21 8 -33 16 -31 6 1 12 -7 12 -17 0 -21 37 -38 51 -24 5 5 10 38 11 73 3 59 1 65 -17 67 -11 2 -26 -4 -32 -12z"></path>  <path d="M2433 2763 c-13 -36 12 -93 39 -93 27 0 32 23 17 72 -17 52 -43 61 -56 21z"></path>  <path d="M2542 2771 c-8 -5 -12 -21 -10 -37 2 -21 9 -30 26 -32 18 -3 22 1 22 21 0 29 -9 57 -19 57 -3 0 -12 -4 -19 -9z"></path>  <path d="M2250 2728 c0 -19 2 -20 10 -8 13 19 13 30 0 30 -5 0 -10 -10 -10 -22z"></path>  <path d="M2589 2683 c-1 -5 0 -18 0 -30 2 -18 -7 -24 -51 -37 -67 -20 -93 -39 -84 -63 6 -15 8 -15 16 -3 7 10 10 11 10 3 0 -7 7 -13 15 -13 16 0 20 -12 8 -23 -3 -4 -12 -2 -20 4 -10 9 -13 8 -13 -4 0 -20 22 -35 28 -19 2 7 9 9 14 6 6 -4 8 -2 5 3 -10 17 17 33 44 27 13 -3 33 -7 44 -8 11 -2 28 -7 38 -11 13 -6 16 -4 11 10 -6 15 -5 15 15 4 17 -11 24 -11 39 -1 9 7 25 15 34 18 9 3 19 13 22 21 4 9 2 11 -6 6 -7 -4 -3 6 10 21 12 16 22 35 22 42 0 23 -52 31 -130 21 -25 -4 -37 -4 -27 -1 17 5 16 8 -8 20 -31 16 -35 17 -36 7z"></path>  <path d="M2590 2510 c-8 -5 -22 -7 -30 -5 -10 3 -19 -5 -26 -23 -10 -25 -8 -28 9 -29 11 -1 24 -8 28 -15 9 -13 9 -13 13 28 1 6 7 19 15 28 17 20 11 29 -9 16z"></path>  <path d="M1251 2501 c-7 -5 -10 -14 -7 -20 4 -6 2 -11 -4 -11 -7 0 -10 -6 -7 -14 3 -8 0 -19 -7 -25 -8 -7 -12 -28 -11 -56 2 -27 -3 -51 -12 -62 -14 -17 -14 -17 -10 5 4 15 1 22 -6 19 -7 -2 -12 -14 -11 -26 0 -15 -4 -20 -13 -17 -8 3 -11 1 -8 -5 4 -5 1 -17 -7 -26 -10 -13 -10 -17 0 -20 6 -3 12 -12 11 -21 0 -11 -2 -12 -6 -4 -2 6 -9 10 -14 6 -13 -8 -11 -72 3 -97 8 -15 12 -71 10 -177 -2 -140 -4 -157 -22 -171 -18 -16 -19 -19 -4 -48 8 -17 21 -31 29 -31 7 0 16 -7 19 -16 7 -18 51 -16 51 3 0 6 4 15 9 20 5 4 7 -4 4 -19 -3 -15 -2 -25 2 -23 4 2 10 26 14 52 3 26 8 62 11 78 4 25 3 26 -3 6 -4 -14 -13 -26 -20 -29 -15 -5 -15 1 2 43 13 29 13 34 -1 39 -11 5 -13 10 -4 20 6 7 8 16 4 20 -4 4 1 4 11 0 17 -6 18 -4 12 19 -5 20 -3 27 9 27 17 0 20 11 6 26 -10 9 -14 35 -12 68 1 16 3 16 21 -5 17 -21 19 -21 13 -4 -3 11 -8 24 -11 30 -3 5 -7 22 -9 38 -2 21 1 28 10 24 11 -4 13 5 10 38 -3 27 0 45 8 50 7 5 10 4 5 -3 -8 -14 14 -63 26 -56 5 4 5 11 0 17 -12 15 -12 48 0 41 5 -3 6 -9 3 -14 -3 -4 0 -10 6 -12 7 -2 12 -18 13 -36 1 -28 3 -30 13 -15 8 11 9 20 3 28 -5 7 -7 15 -3 18 3 4 -1 15 -10 25 -10 10 -14 22 -11 25 4 4 1 13 -6 22 -7 8 -13 25 -14 38 0 12 -6 22 -13 22 -16 0 -27 12 -28 35 -2 20 -1 19 24 -2 l26 -23 -23 26 c-13 15 -20 33 -17 42 4 8 1 25 -5 37 -15 27 -41 10 -32 -22 3 -14 1 -19 -6 -14 -8 5 -11 91 -2 91 1 0 3 8 5 18 4 20 4 19 -14 8z m45 -106 c1 -8 -2 -17 -7 -21 -5 -3 -9 7 -9 22 0 27 12 26 16 -1z m-25 -62 c-9 -16 -10 -14 -11 12 0 21 3 26 11 18 8 -8 8 -16 0 -30z"></path>  <path d="M2420 2407 c-23 -12 -47 -16 -71 -13 -20 3 -38 3 -41 1 -3 -3 3 -35 12 -72 10 -36 16 -73 12 -81 -3 -9 -1 -13 5 -9 9 6 23 -14 25 -33 0 -3 5 -14 10 -24 14 -26 20 -156 7 -156 -5 0 -9 5 -9 12 0 6 -3 8 -6 5 -4 -4 -1 -14 6 -22 10 -12 10 -19 2 -27 -15 -15 -16 -65 -1 -73 7 -5 4 -14 -7 -26 -11 -12 -13 -19 -5 -19 7 0 9 -5 5 -11 -4 -7 1 -10 12 -7 20 4 145 218 147 255 1 11 5 19 8 17 13 -7 50 29 65 64 20 48 12 98 -22 134 -29 30 -54 37 -54 15 0 -36 -106 -50 -134 -18 -17 19 -17 20 21 27 21 4 46 7 55 6 22 -1 53 44 35 51 -6 3 0 6 16 6 15 1 27 6 27 11 0 16 -81 7 -120 -13z"></path>  <path d="M1020 2235 c0 -9 6 -12 15 -9 8 4 12 10 9 15 -8 14 -24 10 -24 -6z"></path>  <path d="M2352 2160 c9 -26 13 -30 16 -16 2 10 -3 26 -12 35 -15 15 -16 13 -4 -19z"></path>  <path d="M1027 2145 c3 -22 7 -42 9 -44 8 -9 2 45 -6 64 -7 14 -8 8 -3 -20z"></path>  <path d="M1392 2073 c-24 -24 -24 -25 -2 -8 42 33 44 35 37 35 -4 0 -19 -12 -35 -27z"></path>  <path d="M2958 2074 c6 -3 10 -9 8 -13 -3 -4 9 -6 27 -3 22 2 28 1 18 -6 -11 -8 -11 -11 0 -18 8 -5 21 -18 29 -28 14 -18 13 -19 -2 -14 -9 4 -19 1 -21 -6 -3 -8 -26 -17 -50 -20 -25 -4 -51 -14 -57 -21 -7 -8 -9 -15 -5 -15 4 0 2 -7 -5 -15 -10 -12 -10 -15 1 -16 8 0 3 -5 -11 -10 -20 -8 -22 -12 -10 -19 8 -5 11 -10 5 -10 -20 0 52 -37 85 -44 47 -9 51 -9 78 -1 42 14 23 -15 -44 -63 -107 -75 -114 -87 -60 -90 23 -2 43 5 62 21 42 34 85 59 91 54 2 -3 -19 -29 -48 -57 -50 -50 -52 -53 -33 -66 10 -7 24 -18 31 -24 9 -7 15 -5 22 8 10 16 10 16 11 -2 0 -16 6 -17 48 -13 91 11 101 16 108 56 10 51 -12 189 -43 272 -27 74 -67 124 -118 144 -29 13 -142 31 -117 19z"></path>  <path d="M1300 1942 c-12 -14 -29 -95 -17 -81 5 5 37 99 34 99 -2 0 -9 -8 -17 -18z"></path>  <path d="M2493 1884 c-6 -13 -7 -24 -3 -24 9 0 25 39 18 45 -2 2 -8 -7 -15 -21z"></path>  <path d="M2884 1784 c3 -9 6 -27 6 -41 0 -29 13 -27 67 10 30 20 31 23 16 35 -9 6 -34 12 -56 12 -32 0 -38 -3 -33 -16z"></path>  <path d="M2413 1674 c-3 -8 -1 -29 4 -47 9 -31 10 -30 9 15 -1 51 -3 57 -13 32z"></path>  <path d="M3191 1556 l-24 -31 28 27 c16 15 27 29 24 31 -2 3 -15 -10 -28 -27z"></path>  <path d="M2670 952 c0 -4 11 -12 24 -18 20 -9 26 -9 30 2 3 8 2 14 -2 15 -4 0 -17 2 -29 5 -13 2 -23 1 -23 -4z"></path>  <path d="M2047 497 c-14 -21 -13 -23 5 -24 13 -1 18 3 14 12 -2 7 0 15 7 18 8 2 8 5 0 10 -6 4 -18 -3 -26 -16z"></path>  <path d="M1929 491 c11 -7 11 -9 0 -14 -8 -2 -2 -4 13 -3 20 1 24 4 16 14 -6 6 -18 12 -27 12 -13 0 -13 -2 -2 -9z"></path>  <path d="M1991 467 c-6 -8 -8 -17 -4 -20 12 -12 19 -7 19 13 0 24 0 24 -15 7z"></path>  <path d="M2122 431 c2 -7 7 -12 11 -12 12 1 9 15 -3 20 -7 2 -11 -2 -8 -8z"></path>  </g> <g id="layer106" fill="#bc8a79" stroke="none">  <path d="M2567 4329 c-11 -6 -32 -9 -47 -7 -16 2 -27 1 -24 -3 2 -4 -5 -10 -16 -14 -18 -6 -24 -17 -21 -37 2 -12 -27 -10 -34 2 -3 6 1 10 9 10 9 0 16 7 16 15 0 18 -5 19 -28 4 -12 -8 -17 -20 -14 -35 3 -18 -2 -26 -19 -33 -13 -5 -18 -10 -11 -10 23 -2 12 -16 -14 -17 -34 -2 -36 -6 -24 -38 13 -35 34 -56 55 -56 9 0 13 -5 10 -10 -4 -6 -16 -8 -27 -4 -17 5 -20 3 -16 -14 4 -14 2 -19 -8 -15 -7 2 -10 12 -7 21 4 10 2 14 -3 9 -11 -10 -12 -107 -2 -101 5 3 8 0 8 -5 0 -6 -4 -11 -9 -11 -5 0 -12 -7 -15 -16 -4 -11 -2 -15 8 -11 10 4 13 1 9 -9 -3 -8 2 -21 12 -28 13 -9 15 -15 7 -20 -20 -12 -15 -56 6 -56 15 0 105 -28 152 -47 8 -3 18 -5 23 -5 4 1 7 -2 7 -8 0 -5 5 -10 10 -10 13 0 86 -52 138 -97 40 -35 63 -44 41 -15 -16 20 19 -7 64 -50 16 -16 35 -28 42 -28 8 0 19 -9 25 -20 6 -11 14 -19 18 -18 14 4 52 -13 52 -23 0 -6 4 -7 10 -4 6 3 7 -1 4 -10 -5 -12 -2 -16 12 -13 12 2 23 -5 29 -19 7 -17 15 -21 30 -17 16 4 17 3 5 -5 -13 -10 -8 -15 12 -12 4 0 24 -23 43 -52 24 -37 33 -60 29 -72 -5 -13 -4 -16 4 -11 12 7 14 -1 16 -66 1 -36 16 -48 16 -13 0 34 7 30 12 -7 2 -15 8 -31 13 -35 4 -4 5 -2 1 5 -4 6 -2 12 5 12 7 0 10 -11 6 -32 -3 -22 1 -39 11 -50 8 -10 10 -18 4 -18 -6 0 -14 5 -17 10 -11 18 -23 10 -18 -11 5 -16 2 -20 -8 -17 -8 3 -13 11 -12 17 2 6 -2 11 -7 11 -6 0 -9 -20 -7 -48 2 -26 0 -56 -4 -67 -8 -20 -10 -12 -13 62 -1 29 -13 38 -29 25 -7 -6 -23 -9 -35 -5 -13 3 -22 1 -22 -6 0 -6 -7 -8 -17 -4 -14 6 -12 9 12 19 22 9 32 9 37 1 15 -24 19 3 4 31 -11 22 -12 32 -3 41 8 8 5 11 -15 11 -15 0 -28 6 -31 13 -3 9 -7 9 -17 0 -9 -9 -8 -14 9 -22 24 -13 29 -44 6 -35 -8 4 -15 12 -15 20 0 20 -27 17 -40 -3 -10 -16 -11 -16 -5 2 11 34 10 40 -2 38 -9 -2 -13 8 -12 30 1 23 3 26 6 10 5 -26 23 -31 23 -8 0 8 9 15 20 15 21 0 19 18 -8 55 -13 19 -13 18 -7 -12 4 -21 3 -33 -4 -33 -6 0 -11 9 -11 20 0 12 -10 24 -24 29 -13 5 -26 17 -29 25 -4 9 -15 16 -25 16 -15 0 -18 5 -14 25 2 15 0 25 -7 25 -6 0 -11 -7 -11 -16 0 -10 -6 -14 -14 -11 -7 3 -19 0 -25 -6 -13 -13 -15 2 -2 22 5 7 13 11 19 7 5 -3 13 10 17 30 8 43 0 57 -10 17 -5 -22 -8 -25 -15 -12 -5 8 -7 27 -6 42 2 15 -1 27 -5 27 -5 0 -9 -5 -9 -11 0 -5 -5 -7 -11 -3 -13 8 -8 -38 6 -48 5 -4 6 -10 2 -14 -4 -4 -15 0 -24 9 -14 14 -15 17 -3 17 13 0 13 2 0 10 -8 5 -16 15 -16 22 -4 36 -18 78 -26 78 -6 0 -7 -8 -3 -17 12 -28 14 -83 4 -83 -5 0 -9 4 -9 8 0 4 -9 8 -20 9 -12 1 -34 13 -51 27 -16 14 -36 23 -44 20 -18 -7 -20 -24 -3 -24 6 0 8 -3 5 -6 -11 -11 -35 15 -57 62 -19 38 -24 42 -36 30 -8 -8 -18 -25 -23 -38 -8 -18 -10 -19 -10 -5 -1 10 -6 15 -11 12 -6 -4 -8 -11 -5 -16 4 -5 -1 -9 -10 -9 -11 0 -13 -4 -8 -12 10 -16 10 -68 1 -61 -5 2 -8 -1 -8 -7 0 -7 -7 -10 -15 -6 -11 4 -15 -1 -15 -19 0 -14 -4 -25 -10 -25 -5 0 -10 -5 -10 -11 0 -6 7 -9 15 -6 8 4 17 2 20 -3 4 -6 1 -10 -4 -10 -6 0 -11 -9 -11 -21 0 -11 -5 -29 -11 -40 -8 -16 -5 -26 19 -53 25 -29 29 -41 27 -82 -1 -27 -6 -57 -10 -68 -4 -10 -4 -21 1 -25 20 -14 2 -67 -19 -54 -7 4 -6 -1 2 -10 12 -15 12 -19 -5 -32 -15 -11 -16 -17 -6 -23 7 -5 14 -23 17 -42 5 -39 20 -52 58 -47 15 2 27 0 27 -4 0 -9 48 -26 84 -28 13 -1 16 -6 12 -18 -7 -17 -6 -17 10 -1 16 16 20 15 65 -8 56 -28 69 -30 69 -9 0 8 5 15 11 15 7 0 9 10 4 27 l-6 27 21 -25 c12 -13 19 -19 16 -12 -4 6 -2 14 3 18 5 3 8 15 6 26 -3 14 0 19 9 16 8 -3 16 3 19 14 3 10 10 19 17 19 21 0 60 -49 60 -75 0 -14 7 -28 15 -31 8 -4 15 -14 15 -23 0 -9 7 -26 15 -37 8 -12 11 -24 8 -28 -3 -3 -1 -6 5 -6 7 0 12 -10 12 -21 0 -12 7 -27 15 -33 20 -14 30 -137 12 -148 -9 -6 -8 -10 3 -18 10 -6 11 -10 3 -10 -8 0 -13 -13 -13 -30 0 -16 -4 -30 -10 -30 -5 0 -10 -5 -10 -11 0 -5 4 -8 9 -4 13 8 7 -41 -7 -58 -7 -8 -14 -27 -16 -43 -2 -16 -7 -45 -10 -64 -6 -33 -6 -33 6 -10 l12 25 4 -28 c2 -19 8 -27 20 -25 13 2 17 -5 17 -32 0 -19 -3 -38 -8 -41 -4 -3 16 -11 45 -19 109 -27 176 -135 228 -363 12 -53 26 -100 31 -103 5 -2 22 2 40 11 17 9 33 15 35 12 2 -2 -11 -12 -28 -21 -33 -18 -33 -18 -30 -87 3 -51 0 -70 -10 -74 -7 -3 -80 -16 -163 -29 -82 -13 -134 -25 -115 -25 19 -1 42 -6 50 -11 10 -6 3 -7 -24 -3 -28 4 -37 3 -32 -5 4 -7 15 -12 24 -13 14 0 14 -2 2 -6 -8 -4 -29 -17 -47 -30 -33 -26 -101 -43 -88 -24 3 6 -1 11 -9 11 -9 0 -16 -4 -16 -10 0 -5 -21 -10 -46 -10 -27 0 -43 4 -39 10 3 5 2 10 -4 10 -6 0 -9 -12 -8 -27 2 -23 -2 -28 -20 -26 -20 2 -22 -1 -16 -28 3 -16 2 -29 -3 -28 -5 1 -16 1 -24 0 -12 -1 -12 -3 -2 -10 10 -6 10 -10 -3 -21 -19 -16 -19 -29 1 -52 15 -16 15 -18 1 -24 -9 -3 -13 -12 -11 -19 3 -7 -5 -23 -18 -34 -19 -19 -20 -23 -8 -31 8 -5 10 -10 4 -10 -7 0 -15 -7 -18 -16 -5 -13 0 -12 29 5 41 24 45 25 45 11 0 -5 -7 -10 -15 -10 -9 0 -15 -9 -15 -25 0 -17 6 -25 17 -25 13 0 14 -3 5 -12 -7 -7 -12 -25 -12 -40 0 -25 -2 -27 -20 -18 -21 11 -42 10 -52 -5 -8 -11 -1 -25 13 -25 6 0 7 5 4 10 -3 6 0 10 8 10 23 0 27 -11 11 -28 -14 -14 -14 -16 1 -24 12 -7 15 -17 10 -40 -7 -28 -5 -29 15 -23 21 7 22 5 16 -21 -4 -16 -14 -33 -22 -37 -8 -4 -14 -13 -14 -18 0 -6 4 -8 9 -4 5 3 13 0 17 -7 4 -7 4 -10 -1 -6 -4 4 -14 3 -21 -2 -6 -6 -16 -10 -20 -9 -22 4 -44 -2 -44 -11 0 -7 6 -7 20 0 23 12 25 8 8 -20 -10 -16 -10 -22 -1 -28 8 -5 8 -12 -2 -25 -13 -18 -14 -17 -20 2 -3 12 -13 21 -21 21 -8 0 -14 5 -14 11 0 6 -7 3 -16 -6 -9 -9 -13 -19 -10 -23 4 -3 10 -1 14 5 5 8 13 9 22 3 12 -7 12 -12 3 -21 -10 -10 -18 -10 -37 -1 -21 9 -27 8 -36 -6 -10 -16 -10 -16 -8 0 2 9 0 17 -4 17 -23 2 -29 0 -23 -9 3 -6 -1 -10 -10 -10 -9 0 -14 -4 -11 -9 3 -5 -1 -14 -9 -21 -10 -9 -12 -18 -4 -37 5 -15 8 -32 5 -40 -3 -7 0 -12 7 -10 6 1 13 -8 15 -21 3 -20 1 -21 -24 -12 -22 9 -25 8 -17 -2 22 -27 -3 -73 -34 -61 -8 3 -13 -2 -13 -16 0 -24 -10 -27 -30 -8 -8 6 1 -5 19 -26 19 -20 42 -37 50 -37 11 0 8 -5 -7 -16 -13 -9 -27 -27 -32 -40 -6 -15 -18 -24 -30 -24 -22 0 -80 26 -80 36 0 3 5 2 11 -1 6 -4 28 -8 49 -10 30 -3 37 0 33 11 -3 8 -9 11 -14 8 -5 -3 -9 2 -9 10 0 8 -11 27 -25 42 -14 15 -25 21 -25 14 0 -19 -60 -91 -71 -84 -5 3 -9 1 -9 -4 0 -5 -11 -10 -24 -10 -14 0 -32 -7 -42 -16 -15 -16 -18 -16 -37 1 -11 10 -17 12 -13 5 6 -10 2 -10 -20 0 l-28 13 30 7 c27 7 26 7 -6 4 -52 -6 -116 8 -112 23 2 8 -3 11 -12 8 -22 -9 -30 10 -14 31 8 12 24 17 45 16 23 -1 30 2 26 13 -3 7 -2 13 3 11 5 -2 11 2 12 7 2 6 9 16 14 23 9 11 13 11 19 0 6 -9 9 -9 9 -1 0 19 -21 27 -31 12 -5 -8 -9 -9 -9 -4 0 6 5 16 12 23 14 14 0 16 -21 3 -8 -5 -11 -16 -6 -30 6 -20 5 -20 -20 -9 -18 8 -22 14 -13 20 9 5 9 8 1 8 -8 0 -8 6 0 24 10 20 15 22 26 13 12 -10 12 -9 1 12 l-13 25 -24 -47 c-13 -26 -26 -47 -29 -47 -2 0 -1 8 4 18 6 12 2 23 -15 39 -13 12 -23 19 -23 15 0 -4 -13 8 -29 27 -17 19 -28 38 -25 43 3 4 -1 8 -8 8 -9 0 -9 3 2 10 13 9 13 11 0 19 -9 6 -19 6 -26 1 -15 -13 -24 -2 -24 31 0 20 -4 27 -14 23 -11 -4 -14 2 -11 23 3 31 -13 47 -32 32 -9 -8 -11 -2 -7 28 4 25 3 34 -4 25 -7 -11 -10 -11 -16 3 -3 9 -11 13 -18 9 -8 -5 -5 -13 11 -25 12 -10 17 -20 11 -24 -13 -8 -50 12 -50 28 0 8 -3 8 -9 -2 -6 -9 -11 -10 -15 -2 -4 6 -4 11 1 11 10 0 -19 20 -30 20 -5 0 -5 -5 -1 -12 4 -6 3 -8 -3 -5 -14 9 -4 58 11 50 6 -3 7 -2 3 3 -5 5 -16 9 -25 9 -9 0 -16 6 -15 12 2 7 -4 13 -12 13 -8 0 -15 5 -15 12 0 6 -3 9 -6 6 -3 -4 -1 -16 6 -27 13 -26 9 -26 -28 -3 -23 14 -27 20 -17 29 7 6 17 9 21 5 5 -4 2 1 -5 11 -8 10 -20 16 -28 13 -7 -3 -13 -1 -13 4 0 6 -8 10 -17 10 -17 1 -17 1 0 11 21 12 22 25 1 33 -8 3 -12 2 -9 -4 3 -6 -1 -7 -9 -4 -9 3 -17 14 -17 23 -4 39 -6 47 -13 64 -5 9 -14 17 -22 17 -8 0 -14 5 -14 10 0 6 -9 19 -20 30 -29 29 -25 48 5 20 14 -13 25 -18 25 -12 0 7 -5 12 -11 12 -5 0 -8 4 -4 9 3 5 -3 12 -13 15 -27 9 -62 49 -67 77 -8 41 -17 112 -18 147 0 17 -4 32 -8 32 -7 0 -21 88 -17 105 2 6 7 9 11 7 5 -1 5 3 1 9 -5 9 -2 10 10 6 10 -4 20 -7 22 -7 3 0 2 -5 -1 -11 -4 -5 5 -28 20 -50 31 -43 42 -51 24 -16 l-12 22 22 -19 c21 -19 22 -19 15 -1 -6 15 -4 17 9 12 28 -11 19 0 -18 22 -19 11 -35 27 -35 35 0 10 -22 18 -72 26 -40 7 -79 17 -85 22 -8 6 -13 34 -13 69 0 33 -4 59 -9 59 -5 0 -26 17 -47 38 -26 24 -38 44 -36 58 3 18 -1 21 -23 17 -14 -3 -28 -9 -31 -14 -3 -5 -11 -9 -17 -9 -7 0 -6 4 3 10 13 8 12 11 -5 24 -11 8 -21 10 -23 5 -2 -5 -8 -9 -13 -9 -10 0 21 67 51 110 20 29 53 123 41 116 -5 -3 -18 22 -29 57 -12 34 -21 55 -22 46 0 -14 12 -57 27 -99 15 -40 -13 -113 -65 -168 -51 -55 -56 -46 -48 88 4 65 12 134 17 152 6 18 13 88 16 156 3 67 10 122 15 122 20 0 66 -31 82 -55 19 -30 31 -26 31 10 1 14 -1 22 -4 20 -2 -3 -20 7 -38 21 -19 14 -37 24 -40 21 -8 -9 -41 26 -53 57 -22 60 48 150 145 182 41 14 67 46 51 61 -3 4 -6 -1 -6 -10 0 -9 -4 -17 -9 -17 -11 0 -2 38 10 46 5 3 6 17 3 32 -4 21 -3 24 5 12 9 -13 11 -13 11 3 0 9 4 17 9 17 5 0 12 7 15 16 3 8 2 12 -4 9 -6 -3 -7 1 -4 9 3 9 10 13 15 10 5 -3 9 9 9 26 0 18 -4 29 -10 25 -5 -3 -10 -13 -10 -21 0 -8 -4 -14 -10 -14 -16 0 -12 15 10 35 15 14 19 27 16 49 -3 16 -1 37 5 47 6 11 5 20 -1 24 -5 3 -10 21 -10 38 0 22 3 28 9 18 5 -7 6 -22 4 -32 -3 -10 -1 -19 5 -19 19 0 19 25 0 53 -18 25 -18 29 -3 59 8 18 22 64 30 103 8 38 24 82 35 97 14 19 16 28 7 31 -7 3 -5 8 7 13 49 19 64 50 69 134 1 19 7 34 13 33 7 -1 11 13 10 37 -1 24 3 40 9 40 6 0 11 15 11 34 0 26 -4 33 -15 29 -11 -3 -12 -2 -4 4 13 10 18 33 10 53 -12 33 -15 60 -5 60 6 0 6 6 -2 15 -6 8 -9 19 -6 24 4 5 1 13 -5 16 -5 4 -8 13 -5 21 3 8 1 14 -3 14 -5 0 -7 12 -5 28 16 95 10 162 -13 162 -10 0 -12 6 -8 19 12 40 -14 29 -76 -32 -102 -98 -129 -140 -129 -197 0 -21 9 -36 35 -56 20 -15 33 -29 31 -31 -3 -3 -30 7 -62 21 -31 14 -61 26 -68 26 -21 0 -159 60 -215 94 -31 18 -90 52 -133 74 l-76 41 -71 -75 c-282 -296 -493 -727 -572 -1169 -35 -192 -35 -598 0 -790 99 -554 381 -1040 813 -1401 325 -271 772 -462 1208 -514 109 -13 431 -13 540 0 273 33 543 116 796 245 583 298 1024 850 1184 1482 56 221 65 304 65 588 -1 283 -9 353 -66 579 -96 381 -314 769 -582 1034 l-83 83 -58 -26 c-42 -18 -62 -23 -71 -15 -9 7 -16 6 -25 -5 -7 -8 -9 -15 -4 -15 5 0 -27 -18 -71 -40 -44 -22 -84 -40 -88 -40 -5 0 -31 -18 -57 -40 -45 -38 -49 -39 -55 -20 -3 11 -9 20 -13 20 -9 0 -62 -75 -62 -88 0 -9 -31 -21 -53 -22 -5 0 -1 10 7 22 17 23 22 68 8 68 -7 0 -42 -73 -42 -89 0 -4 -9 -16 -21 -26 -20 -19 -20 -19 -10 9 35 91 -15 221 -128 334 -64 65 -172 129 -243 147 -14 4 -34 15 -44 26 -9 10 -25 19 -34 19 -9 0 -21 5 -27 11 -6 6 -36 23 -66 38 -31 16 -54 31 -50 35 4 3 -9 6 -28 5 -19 -1 -45 1 -59 4 -14 4 -33 1 -43 -4z m668 -1261 c3 -3 1 -16 -4 -29 -9 -23 -10 -23 -10 -2 -1 12 -9 27 -18 32 -16 10 -15 10 4 8 12 -2 25 -6 28 -9z m-145 -29 c0 -6 -5 -7 -11 -3 -8 5 -8 1 0 -14 15 -29 14 -35 -10 -50 -21 -13 -21 -13 -15 23 5 25 4 35 -3 30 -6 -3 -11 1 -11 9 0 8 8 16 18 19 20 4 32 -1 32 -14z m151 -54 c8 5 9 1 4 -14 -4 -13 -2 -21 5 -21 6 0 8 -4 5 -10 -3 -5 -1 -10 5 -10 6 0 8 -4 5 -10 -10 -15 -52 -12 -59 5 -3 8 -1 15 3 15 5 0 11 -6 14 -12 2 -7 7 -10 11 -7 7 7 -8 25 -43 49 -20 13 -20 15 -4 21 10 4 23 2 30 -3 7 -5 17 -7 24 -3z m29 -115 c8 -5 11 -12 8 -16 -10 -9 -38 3 -38 16 0 12 10 13 30 0z m14 -62 c-3 -4 -11 -2 -18 5 -10 8 -11 14 -3 19 13 8 29 -11 21 -24z m255 -346 c7 -16 9 -40 6 -54 -5 -20 -12 -24 -40 -23 -23 0 -31 -3 -28 -12 5 -13 -18 -18 -30 -7 -3 3 3 23 14 45 12 21 18 43 14 49 -3 5 4 14 17 19 34 14 34 14 47 -17z m19 -147 c7 -14 12 -48 12 -74 0 -27 7 -86 15 -132 8 -46 17 -133 21 -192 l7 -109 -24 4 c-33 4 -89 89 -89 134 0 19 6 60 14 92 47 192 49 205 32 246 -9 21 -16 42 -16 47 0 18 17 8 28 -16z m-54 -42 c3 -10 11 -25 17 -34 14 -18 -12 -118 -36 -143 -8 -8 -15 -19 -15 -25 0 -13 -29 -41 -42 -41 -6 0 -8 13 -4 33 13 74 17 167 8 167 -6 0 -8 9 -5 20 3 11 14 20 24 20 10 0 21 5 24 10 9 15 22 12 29 -7z m14 -514 c13 -22 20 -39 17 -39 -3 0 -24 10 -45 23 -44 25 -53 51 -17 53 17 1 29 -9 45 -37z m-85 -74 c-10 -7 -22 -10 -28 -7 -5 4 -2 8 8 10 9 2 17 11 17 21 0 27 15 36 18 11 2 -12 -4 -27 -15 -35z m-947 -1357 c14 20 29 10 21 -13 -9 -21 -47 -20 -47 3 0 14 -2 15 -10 2 -5 -8 -12 -11 -17 -7 -4 5 -1 12 7 17 10 7 18 5 24 -4 8 -12 12 -12 22 2z"></path>  <path d="M2316 4219 c-11 -10 -15 -19 -10 -19 12 1 44 25 44 34 0 11 -15 5 -34 -15z"></path>  <path d="M3604 3909 c-19 -22 -19 -22 4 -10 12 6 22 16 22 21 0 15 -5 12 -26 -11z"></path>  <path d="M3491 3881 c-7 -5 -11 -17 -9 -27 4 -17 5 -17 17 4 14 27 12 35 -8 23z"></path>  <path d="M2400 3522 c0 -21 2 -22 15 -12 8 7 15 18 15 25 0 6 -7 12 -15 12 -9 0 -15 -10 -15 -25z"></path>  <path d="M2660 3511 c0 -17 2 -31 4 -31 8 0 13 51 5 56 -5 3 -9 -9 -9 -25z"></path>  <path d="M2686 3487 c3 -8 11 -14 18 -14 8 0 12 6 9 14 -3 7 -11 13 -19 13 -7 0 -11 -6 -8 -13z"></path>  <path d="M3062 3310 c7 -11 16 -20 21 -20 4 0 3 9 -3 20 -6 11 -15 20 -20 20 -6 0 -5 -9 2 -20z"></path>  <path d="M3005 3304 c33 -26 55 -36 55 -25 0 5 -14 17 -32 25 -39 20 -49 20 -23 0z"></path>  <path d="M2353 2805 c-7 -8 -13 -19 -13 -24 0 -6 -7 -8 -16 -4 -12 5 -15 -1 -12 -28 2 -21 8 -33 16 -31 6 1 12 -7 12 -17 0 -21 37 -38 51 -24 5 5 10 38 11 73 3 59 1 65 -17 67 -11 2 -26 -4 -32 -12z"></path>  <path d="M2433 2763 c-13 -36 12 -93 39 -93 27 0 32 23 17 72 -17 52 -43 61 -56 21z"></path>  <path d="M2542 2771 c-8 -5 -12 -21 -10 -37 2 -21 9 -30 26 -32 18 -3 22 1 22 21 0 29 -9 57 -19 57 -3 0 -12 -4 -19 -9z"></path>  <path d="M2250 2728 c0 -19 2 -20 10 -8 13 19 13 30 0 30 -5 0 -10 -10 -10 -22z"></path>  <path d="M2589 2683 c-1 -5 0 -18 0 -30 2 -18 -7 -24 -51 -37 -67 -20 -93 -39 -84 -63 6 -15 8 -15 16 -3 7 10 10 11 10 3 0 -7 7 -13 15 -13 16 0 20 -12 8 -23 -3 -4 -12 -2 -20 4 -10 9 -13 8 -13 -4 0 -20 22 -35 28 -19 2 7 9 9 14 6 6 -4 8 -2 5 3 -10 17 17 33 44 27 13 -3 33 -7 44 -8 11 -2 28 -7 38 -11 13 -6 16 -4 11 10 -6 15 -5 15 15 4 17 -11 24 -11 39 -1 9 7 25 15 34 18 9 3 19 13 22 21 4 9 2 11 -6 6 -7 -4 -3 6 10 21 12 16 22 35 22 42 0 23 -52 31 -130 21 -25 -4 -37 -4 -27 -1 17 5 16 8 -8 20 -31 16 -35 17 -36 7z"></path>  <path d="M2590 2510 c-8 -5 -22 -7 -30 -5 -10 3 -19 -5 -26 -23 -10 -25 -8 -28 9 -29 11 -1 24 -8 28 -15 9 -13 9 -13 13 28 1 6 7 19 15 28 17 20 11 29 -9 16z"></path>  <path d="M1251 2501 c-7 -5 -10 -14 -7 -20 4 -6 2 -11 -4 -11 -7 0 -10 -6 -7 -14 3 -8 0 -19 -7 -25 -8 -7 -12 -28 -11 -56 2 -27 -3 -51 -12 -62 -14 -17 -14 -17 -10 5 4 15 1 22 -6 19 -7 -2 -12 -14 -11 -26 0 -15 -4 -20 -13 -17 -8 3 -11 1 -8 -5 4 -5 1 -17 -7 -26 -10 -13 -10 -17 0 -20 6 -3 12 -12 11 -21 0 -11 -2 -12 -6 -4 -2 6 -9 10 -14 6 -13 -8 -11 -72 3 -97 8 -15 12 -71 10 -177 -2 -140 -4 -157 -22 -171 -18 -16 -19 -19 -4 -48 8 -17 21 -31 29 -31 7 0 16 -7 19 -16 7 -20 51 -15 51 6 1 8 6 14 11 13 12 -2 39 105 30 114 -3 4 -6 -3 -6 -15 0 -20 -17 -39 -26 -29 -3 3 1 21 10 40 13 32 13 36 -1 41 -11 5 -13 10 -4 20 6 7 8 16 4 20 -4 4 1 4 11 0 17 -6 18 -4 12 19 -5 20 -3 27 9 27 17 0 20 11 6 26 -10 9 -14 35 -12 68 1 16 3 16 21 -5 17 -21 19 -21 13 -4 -3 11 -8 24 -11 30 -3 5 -7 22 -9 38 -2 21 1 28 10 24 11 -4 13 5 10 38 -3 27 0 45 8 50 7 5 10 4 5 -3 -8 -14 14 -63 26 -56 5 4 5 11 0 17 -12 15 -12 48 0 41 5 -3 6 -9 3 -14 -3 -4 0 -10 6 -12 7 -2 12 -18 13 -36 1 -28 3 -30 13 -15 8 11 9 20 3 28 -5 7 -7 15 -3 18 3 4 -1 15 -10 25 -10 10 -14 22 -11 25 4 4 1 13 -6 22 -7 8 -13 25 -14 38 0 12 -6 22 -13 22 -16 0 -27 12 -28 35 -2 20 -1 19 24 -2 l26 -23 -23 26 c-13 15 -20 33 -17 42 4 8 1 25 -5 37 -15 27 -41 10 -32 -22 3 -14 1 -19 -6 -14 -8 5 -11 91 -2 91 1 0 3 8 5 18 4 20 4 19 -14 8z m45 -106 c1 -8 -2 -17 -7 -21 -5 -3 -9 7 -9 22 0 27 12 26 16 -1z m-25 -62 c-9 -16 -10 -14 -11 12 0 21 3 26 11 18 8 -8 8 -16 0 -30z"></path>  <path d="M2420 2407 c-23 -12 -47 -16 -71 -13 -20 3 -38 3 -41 1 -3 -3 3 -35 12 -72 10 -36 16 -73 12 -81 -3 -9 -1 -13 5 -9 9 6 23 -14 25 -33 0 -3 5 -14 10 -24 14 -26 20 -156 7 -156 -5 0 -9 5 -9 12 0 6 -3 8 -6 5 -4 -4 -1 -14 6 -22 10 -12 10 -19 2 -27 -15 -15 -16 -65 -1 -73 7 -5 4 -14 -7 -26 -11 -12 -13 -19 -5 -19 7 0 9 -5 5 -11 -4 -7 1 -10 12 -7 20 4 145 218 147 255 1 11 5 19 8 17 13 -7 50 29 65 64 20 48 12 98 -22 134 -29 30 -54 37 -54 15 0 -36 -106 -50 -134 -18 -17 19 -17 20 21 27 21 4 46 7 55 6 22 -1 53 44 35 51 -6 3 0 6 16 6 15 1 27 6 27 11 0 16 -81 7 -120 -13z"></path>  <path d="M1020 2235 c0 -9 6 -12 15 -9 8 4 12 10 9 15 -8 14 -24 10 -24 -6z"></path>  <path d="M2352 2160 c9 -26 13 -30 16 -16 2 10 -3 26 -12 35 -15 15 -16 13 -4 -19z"></path>  <path d="M1027 2145 c3 -22 7 -42 9 -44 8 -9 2 45 -6 64 -7 14 -8 8 -3 -20z"></path>  <path d="M1392 2073 c-24 -24 -24 -25 -2 -8 42 33 44 35 37 35 -4 0 -19 -12 -35 -27z"></path>  <path d="M2958 2074 c6 -3 10 -9 8 -13 -3 -4 9 -6 27 -3 22 2 28 1 18 -6 -11 -8 -11 -11 0 -18 8 -5 21 -18 29 -28 14 -18 13 -19 -2 -14 -9 4 -19 1 -21 -6 -3 -8 -26 -17 -50 -20 -25 -4 -51 -14 -57 -21 -7 -8 -9 -15 -5 -15 4 0 2 -7 -5 -15 -10 -12 -10 -15 1 -16 8 0 3 -5 -11 -10 -20 -8 -22 -12 -10 -19 8 -5 11 -10 5 -10 -20 0 52 -37 85 -44 47 -9 51 -9 78 -1 42 14 23 -15 -44 -63 -107 -75 -114 -87 -60 -90 23 -2 43 5 62 21 42 34 85 59 91 54 2 -3 -19 -29 -48 -57 -50 -50 -52 -53 -33 -66 10 -7 24 -18 31 -24 9 -7 15 -5 22 8 10 16 10 16 11 -2 0 -16 6 -17 48 -13 91 11 101 16 108 56 10 51 -12 189 -43 272 -27 74 -67 124 -118 144 -29 13 -142 31 -117 19z"></path>  <path d="M1300 1942 c-12 -14 -29 -95 -17 -81 5 5 37 99 34 99 -2 0 -9 -8 -17 -18z"></path>  <path d="M2493 1884 c-6 -13 -7 -24 -3 -24 9 0 25 39 18 45 -2 2 -8 -7 -15 -21z"></path>  <path d="M2889 1783 c9 -18 11 -25 11 -43 0 -5 5 -10 11 -10 5 0 7 4 4 10 -3 6 1 7 9 4 9 -3 27 3 41 14 25 20 25 21 6 31 -11 6 -36 11 -56 11 -31 0 -34 -2 -26 -17z"></path>  <path d="M2413 1674 c-3 -8 -1 -29 4 -47 9 -31 10 -30 9 15 -1 51 -3 57 -13 32z"></path>  <path d="M3191 1556 l-24 -31 28 27 c16 15 27 29 24 31 -2 3 -15 -10 -28 -27z"></path>  <path d="M2670 952 c0 -4 11 -12 24 -18 20 -9 26 -9 30 2 3 8 2 14 -2 15 -4 0 -17 2 -29 5 -13 2 -23 1 -23 -4z"></path>  <path d="M2047 497 c-14 -21 -13 -23 5 -24 13 -1 18 3 14 12 -2 7 0 15 7 18 8 2 8 5 0 10 -6 4 -18 -3 -26 -16z"></path>  <path d="M1929 491 c11 -7 11 -9 0 -14 -8 -2 -2 -4 13 -3 20 1 24 4 16 14 -6 6 -18 12 -27 12 -13 0 -13 -2 -2 -9z"></path>  <path d="M1991 467 c-6 -8 -8 -17 -4 -20 12 -12 19 -7 19 13 0 24 0 24 -15 7z"></path>  <path d="M2122 431 c2 -7 7 -12 11 -12 12 1 9 15 -3 20 -7 2 -11 -2 -8 -8z"></path>  </g> <g id="layer107" fill="#dba499" stroke="none">  <path d="M2760 4234 c0 -9 -6 -14 -12 -11 -7 2 -21 0 -32 -5 -13 -7 -21 -6 -27 3 -4 7 -10 11 -13 8 -8 -8 20 -63 39 -79 19 -16 19 -34 0 -26 -19 7 -19 -1 0 -20 8 -8 11 -22 8 -30 -3 -9 0 -20 8 -25 11 -7 9 -10 -9 -15 -15 -4 -21 -12 -18 -21 5 -12 -6 -46 -20 -62 -1 -2 -17 7 -35 19 -17 13 -41 24 -53 26 -11 2 -30 5 -41 7 -26 6 -41 -3 -24 -14 10 -6 7 -10 -11 -18 -18 -7 -20 -10 -7 -10 17 -1 25 -21 8 -21 -4 0 -7 -13 -5 -30 2 -20 -2 -32 -14 -39 -11 -7 -13 -10 -3 -11 7 0 11 -6 7 -15 -6 -16 -4 -18 66 -70 26 -19 54 -35 62 -35 8 0 20 -9 26 -20 6 -11 15 -20 21 -20 6 0 7 5 3 12 -5 8 -2 9 10 5 10 -4 22 -7 27 -7 6 0 8 -4 5 -8 -3 -5 8 -22 24 -37 17 -16 30 -23 30 -17 0 23 18 12 30 -18 7 -17 17 -33 23 -37 6 -3 7 -1 3 5 -5 8 0 12 13 12 11 0 24 -7 29 -16 5 -8 17 -17 28 -18 10 -2 18 -11 18 -20 -1 -9 3 -16 9 -16 6 0 19 -8 30 -17 11 -10 17 -13 14 -6 -5 7 0 9 13 6 16 -4 18 -8 9 -19 -9 -11 -8 -14 4 -14 8 0 28 -15 43 -32 15 -18 33 -32 41 -30 11 2 19 -23 14 -50 0 -5 4 -7 11 -5 6 1 14 -7 17 -18 3 -11 14 -32 24 -47 10 -15 16 -31 13 -37 -4 -5 1 -16 9 -25 8 -8 18 -29 21 -46 4 -17 11 -33 15 -36 5 -3 9 -19 9 -35 0 -22 6 -32 24 -39 20 -7 26 -19 33 -62 7 -40 12 -52 25 -50 12 2 17 -10 23 -53 3 -30 4 -59 1 -64 -4 -5 -2 -12 4 -16 5 -3 10 -17 10 -29 0 -13 6 -28 13 -34 7 -6 14 -23 15 -39 1 -15 9 -33 17 -39 12 -9 12 -13 -3 -28 -16 -17 -15 -19 23 -52 30 -27 39 -41 37 -61 -2 -14 0 -23 5 -20 4 3 24 -2 43 -12 62 -29 94 -122 57 -168 -7 -9 -5 -13 6 -13 19 0 27 -30 27 -110 0 -36 6 -105 14 -155 8 -49 17 -132 20 -183 6 -79 4 -93 -9 -98 -21 -8 -66 35 -96 91 l-23 43 22 89 c50 204 51 216 30 257 -10 20 -23 34 -29 31 -5 -4 -1 -22 12 -45 l22 -39 -23 -78 c-29 -99 -40 -123 -56 -123 -7 0 -14 -5 -16 -12 -3 -7 -13 -2 -26 13 -20 21 -22 31 -17 79 12 112 9 164 -9 157 -27 -10 -47 40 -62 148 -3 28 -9 52 -13 55 -4 3 -8 17 -9 33 -4 56 -7 67 -17 67 -5 0 -4 4 4 9 11 7 9 11 -9 21 -14 8 -20 18 -17 30 3 11 0 22 -7 25 -8 4 -8 7 1 11 9 4 7 12 -8 27 -17 18 -21 19 -29 7 -7 -11 -12 -12 -21 -3 -9 9 -6 15 10 25 11 7 21 19 21 26 0 20 -49 -19 -50 -40 0 -37 -20 -28 -20 10 0 49 -9 59 -27 26 -15 -30 -17 -54 -4 -54 5 0 7 -15 6 -32 -2 -18 -8 -32 -14 -31 -6 2 -9 -9 -7 -27 2 -21 -1 -30 -11 -30 -11 0 -14 7 -11 25 3 14 2 25 -1 25 -4 0 -8 10 -8 22 -3 33 -36 115 -41 100 -2 -6 -10 -12 -18 -12 -19 0 -19 -59 0 -66 9 -3 13 -18 12 -40 -1 -23 3 -34 12 -34 11 0 13 -18 10 -85 -3 -56 0 -85 6 -85 6 0 4 -5 -4 -10 -9 -6 -11 -13 -5 -17 6 -5 10 -41 11 -80 1 -72 16 -109 37 -96 6 4 8 -2 4 -16 -3 -12 1 -27 9 -36 9 -8 10 -16 4 -20 -18 -11 -10 -23 21 -30 17 -4 28 -9 25 -13 -3 -3 -1 -11 5 -18 21 -25 -11 -25 -48 1 -21 14 -42 25 -47 25 -6 0 10 -13 35 -29 26 -16 57 -47 72 -73 32 -55 72 -171 92 -270 22 -106 19 -102 62 -79 49 26 78 51 88 76 7 19 8 19 15 -5 22 -72 0 -144 -57 -186 -21 -16 -45 -36 -53 -45 -9 -11 -45 -23 -97 -32 -46 -8 -88 -21 -98 -30 -9 -9 -24 -21 -33 -27 -15 -8 -15 -11 -2 -20 12 -9 10 -10 -10 -8 -20 2 -25 -1 -25 -19 0 -11 -3 -25 -7 -29 -4 -4 -3 -13 3 -20 6 -8 9 -21 5 -29 -7 -19 14 -66 25 -59 5 3 9 -2 9 -10 0 -8 -5 -18 -10 -21 -8 -5 -8 -11 -1 -19 6 -7 8 -16 4 -19 -3 -4 -1 -12 5 -19 7 -9 6 -18 -3 -32 -10 -13 -11 -25 -5 -42 5 -13 6 -24 1 -24 -5 0 -11 -9 -14 -20 -3 -11 -1 -20 4 -20 4 0 6 -6 3 -14 -3 -8 2 -16 11 -18 15 -3 15 -6 -4 -29 -11 -15 -17 -29 -14 -33 3 -3 1 -6 -6 -6 -7 0 -9 -5 -6 -11 4 -5 -1 -19 -11 -30 -10 -11 -12 -19 -6 -19 7 0 12 -11 12 -24 0 -13 6 -27 13 -30 6 -4 3 -5 -9 -3 -13 3 -29 -7 -48 -29 -15 -19 -34 -34 -42 -34 -8 0 -14 -7 -14 -15 0 -13 4 -14 20 -5 17 9 19 8 13 -7 -10 -27 -33 -59 -33 -45 0 7 -7 6 -18 -6 -13 -11 -16 -21 -9 -29 6 -9 6 -13 -2 -13 -6 0 -11 -6 -11 -13 0 -7 -9 -18 -21 -25 -12 -8 -18 -9 -14 -3 3 6 1 11 -5 11 -17 0 -23 -29 -10 -45 16 -19 30 -19 30 0 0 9 6 12 17 8 15 -6 14 -8 -4 -20 l-22 -14 21 -21 c11 -11 26 -17 33 -14 21 8 7 -20 -27 -54 -16 -17 -27 -34 -24 -39 4 -5 -5 -18 -19 -29 -14 -11 -25 -26 -25 -34 0 -8 -12 -21 -27 -29 -16 -7 -40 -23 -55 -35 -41 -33 -149 -81 -236 -106 -109 -30 -287 -31 -452 -1 -53 9 -232 87 -292 126 -29 19 -80 51 -113 72 -81 51 -261 193 -311 247 -129 136 -186 242 -227 423 -37 160 -41 213 -42 467 0 253 0 258 -20 252 -11 -4 -24 -10 -29 -15 -18 -16 -65 -9 -85 12 -10 11 -21 35 -24 52 -5 37 9 220 23 287 10 53 14 293 4 332 -3 15 -3 39 0 53 9 37 63 93 115 120 44 22 47 26 59 82 7 33 12 75 12 95 0 20 6 38 12 40 7 3 13 15 13 29 0 18 5 23 19 21 10 -2 16 2 14 8 -2 6 -8 10 -13 8 -18 -6 -24 65 -9 98 8 17 14 35 13 40 -3 13 12 67 24 82 5 7 14 34 18 60 16 87 51 183 68 189 39 14 51 45 51 134 0 48 -3 101 -7 119 -8 43 -81 120 -114 120 -13 0 -48 11 -77 25 -30 14 -61 25 -70 25 -10 0 -39 12 -67 25 -27 14 -55 25 -60 25 -6 0 -42 18 -80 41 -38 22 -105 59 -148 81 l-78 41 -46 -44 c-216 -210 -438 -600 -537 -946 -66 -230 -81 -346 -81 -643 0 -234 3 -280 24 -395 99 -554 381 -1040 813 -1401 325 -271 772 -462 1208 -514 109 -13 431 -13 540 0 273 33 543 116 796 245 237 121 414 254 609 456 333 346 540 759 622 1247 25 151 25 582 0 727 -85 483 -295 908 -609 1231 l-99 102 -112 -48 c-157 -68 -245 -114 -281 -148 -40 -38 -123 -88 -161 -98 -16 -4 -41 -15 -54 -26 -32 -24 -36 -17 -16 23 36 70 -13 204 -111 304 -52 52 -104 83 -229 135 -11 5 -42 18 -70 30 -27 12 -60 22 -72 22 -12 0 -22 3 -21 7 2 18 -3 31 -12 31 -5 0 -10 -7 -10 -16z m704 -2371 c8 -16 28 -37 45 -48 17 -11 31 -24 31 -29 0 -6 9 -20 21 -32 l21 -22 -21 -11 c-16 -9 -27 -8 -52 6 -17 10 -40 22 -49 28 -10 5 -20 25 -23 45 -3 19 -9 47 -12 63 -6 21 -4 27 9 27 8 0 22 -12 30 -27z m-344 -508 c0 -8 -4 -15 -10 -15 -5 0 -10 7 -10 15 0 8 5 15 10 15 6 0 10 -7 10 -15z m-10 -35 c0 -5 -7 -10 -15 -10 -8 0 -15 5 -15 10 0 6 7 10 15 10 8 0 15 -4 15 -10z m-30 -575 c0 -19 -13 -25 -29 -15 -12 6 -11 10 0 23 16 17 29 13 29 -8z"></path>  <path d="M2660 4044 c0 -3 5 -14 11 -26 14 -25 6 -33 -20 -19 -17 10 -20 9 -15 -4 7 -17 31 -20 53 -6 11 7 10 13 -4 35 -17 25 -25 32 -25 20z"></path>  <path d="M2571 3393 c-8 -14 -10 -15 -11 -3 0 13 -2 13 -9 1 -5 -8 -7 -20 -4 -28 4 -9 0 -11 -11 -7 -11 4 -16 1 -16 -11 0 -9 4 -14 9 -11 4 3 6 -6 3 -19 -2 -14 1 -26 7 -26 6 -1 17 -2 23 -3 16 -1 23 -36 8 -36 -6 0 -3 -10 7 -24 13 -17 25 -22 42 -19 23 4 23 2 17 -39 -4 -23 -12 -46 -19 -50 -9 -6 -9 -8 1 -8 6 0 12 -7 12 -15 0 -8 5 -15 11 -15 7 0 9 -9 6 -21 -5 -17 -3 -18 10 -8 11 10 13 24 9 51 -4 23 -2 38 4 38 9 0 13 -12 25 -73 2 -9 -2 -23 -9 -30 -18 -17 -9 -42 10 -26 10 8 19 5 38 -18 22 -24 27 -26 36 -13 13 19 13 30 0 30 -5 0 -10 -7 -10 -15 0 -13 -2 -13 -14 -3 -10 9 -11 15 -2 20 7 5 5 8 -6 8 -10 0 -18 7 -18 15 0 8 5 15 10 15 6 0 10 -4 10 -9 0 -5 8 -11 18 -13 13 -4 18 2 19 25 1 17 7 35 12 40 5 5 7 15 5 21 -3 7 10 18 29 25 32 13 47 44 26 56 -5 4 -9 -1 -9 -10 0 -9 -4 -13 -10 -10 -5 3 -7 19 -3 35 4 22 2 30 -8 30 -12 0 -12 2 -1 9 11 7 11 9 -2 14 -9 4 -13 14 -11 27 2 11 0 20 -6 20 -5 0 -9 -4 -9 -9 0 -6 -15 3 -32 20 -18 16 -36 29 -40 29 -5 0 -8 8 -8 18 0 10 -3 13 -8 6 -15 -22 -41 -24 -47 -3 -4 10 -11 19 -16 19 -6 0 -7 6 -3 13 6 9 4 9 -8 -1 -11 -9 -18 -10 -23 -2 -9 15 -23 12 -34 -7z m189 -307 c0 -8 -7 -16 -15 -20 -15 -5 -21 14 -8 27 11 12 23 8 23 -7z"></path>  <path d="M2491 3393 c0 -4 4 -17 9 -28 8 -19 9 -19 9 2 1 12 -3 25 -9 28 -5 3 -10 3 -9 -2z"></path>  <path d="M2532 3058 c-9 -9 -9 -15 1 -27 10 -12 9 -14 -7 -8 -15 6 -17 4 -13 -13 3 -12 0 -20 -8 -20 -17 0 -29 -32 -14 -41 6 -4 9 -11 6 -16 -9 -14 21 -53 41 -53 9 0 39 -11 66 -25 65 -33 76 -32 76 6 0 22 -4 30 -13 26 -10 -4 -13 4 -11 26 4 43 -6 88 -16 82 -5 -3 -7 -11 -4 -18 3 -8 -4 -13 -17 -14 -17 -2 -18 1 -8 13 10 12 8 18 -9 30 -12 8 -22 24 -22 35 0 10 -4 19 -10 19 -5 0 -10 -7 -10 -16 0 -8 -4 -13 -10 -9 -5 3 -7 12 -3 20 6 18 1 19 -15 3z"></path>  <path d="M3160 2805 c0 -15 4 -24 10 -20 6 3 10 12 10 20 0 8 -4 17 -10 20 -6 4 -10 -5 -10 -20z"></path>  <path d="M2445 2779 c-4 -6 -4 -13 -1 -16 3 -4 6 -1 6 6 0 7 4 10 9 7 4 -3 6 -16 4 -28 -2 -13 3 -32 11 -43 19 -25 21 -8 5 48 -10 37 -22 46 -34 26z"></path>  <path d="M2567 2753 c-11 -10 -8 -43 3 -43 6 0 10 11 10 25 0 26 -2 29 -13 18z"></path>  <path d="M2663 2636 c-18 -6 -33 -14 -33 -18 0 -4 -9 -8 -20 -8 -24 0 -25 -6 -5 -26 8 -9 15 -11 15 -5 0 6 9 15 21 22 19 10 20 8 14 -10 -5 -16 -3 -20 9 -15 9 3 16 10 16 14 0 5 9 12 20 15 22 7 27 31 8 37 -7 2 -28 -1 -45 -6z"></path>  <path d="M2330 2377 c0 -7 3 -17 8 -21 7 -8 9 -13 11 -45 1 -13 7 -18 20 -14 10 2 25 -3 35 -12 14 -15 16 -15 16 -1 0 9 -6 16 -13 16 -8 0 -22 9 -33 21 -14 15 -15 22 -6 28 10 6 10 10 0 18 -27 21 -38 24 -38 10z"></path>  <path d="M2511 2284 c-38 -42 -45 -46 -77 -41 -44 7 -46 -14 -5 -62 17 -19 28 -38 25 -43 -3 -4 0 -8 7 -8 10 0 10 -3 1 -12 -16 -16 -15 -25 4 -32 8 -3 12 -2 9 4 -3 6 -1 10 5 10 6 0 8 4 5 10 -3 5 1 22 9 38 8 16 13 32 10 35 -3 3 4 8 15 12 12 3 21 13 21 21 0 17 12 18 27 3 31 -31 46 42 17 86 -9 14 -20 25 -24 25 -4 0 -26 -21 -49 -46z"></path>  <path d="M3466 2308 c-16 -22 -15 -35 2 -24 9 5 24 46 17 46 -2 0 -11 -10 -19 -22z"></path>  <path d="M3164 1948 c7 -18 16 -42 20 -52 3 -10 9 -17 11 -14 6 6 -31 98 -39 98 -3 0 1 -15 8 -32z"></path>  <path d="M3002 1930 c-11 -18 -10 -20 9 -20 11 0 35 -11 54 -25 29 -23 35 -24 48 -11 8 8 17 12 21 9 3 -4 6 3 6 15 0 34 -27 52 -78 52 -36 0 -50 -5 -60 -20z"></path>  <path d="M2990 1870 c0 -5 -9 -6 -20 -3 -21 5 -25 -3 -12 -24 8 -12 82 -29 82 -19 0 4 -10 11 -22 15 l-23 9 24 9 25 10 -27 5 c-15 3 -27 2 -27 -2z"></path>  <path d="M3201 1839 c-1 -15 -7 -29 -15 -32 -8 -3 -12 -15 -9 -30 3 -14 0 -28 -6 -31 -6 -4 -11 -16 -11 -27 0 -10 -5 -19 -11 -19 -6 0 -9 6 -6 13 3 8 -3 13 -14 13 -24 0 -24 -7 1 -36 11 -12 18 -26 15 -30 -6 -9 40 -30 67 -30 20 0 21 4 15 93 -2 50 -10 103 -15 117 l-11 25 0 -26z"></path>  <path d="M2950 1780 c0 -5 -7 -10 -15 -10 -8 0 -15 -7 -15 -15 0 -21 16 -19 33 5 8 11 17 17 22 12 5 -4 5 -1 1 6 -9 14 -26 16 -26 2z"></path>  <path d="M3075 1773 c-74 -29 -132 -87 -81 -79 23 3 86 50 86 64 0 7 4 11 9 8 5 -3 14 1 21 9 15 18 15 18 -35 -2z"></path>  <path d="M2840 486 c-5 -13 -6 -34 -3 -47 3 -16 2 -20 -4 -11 -7 9 -15 4 -31 -18 -28 -38 -15 -39 27 -2 25 22 31 34 29 65 -1 43 -5 46 -18 13z"></path>  <path d="M2768 298 c-23 -28 -23 -34 2 -34 11 0 20 6 20 13 0 7 7 13 15 13 8 0 15 5 15 11 0 6 -6 9 -14 6 -8 -3 -16 -2 -18 3 -2 5 -11 0 -20 -12z"></path>  </g> <g id="layer108" fill="#e1d6c0" stroke="none">  <path d="M3130 4043 c0 -4 9 -14 20 -21 12 -7 18 -17 15 -22 -4 -6 -11 -8 -16 -5 -5 4 -9 -1 -9 -10 0 -11 -5 -15 -15 -11 -12 4 -14 -2 -11 -30 3 -19 9 -41 15 -48 7 -9 7 -16 -1 -24 -9 -9 -7 -12 10 -12 18 0 22 -6 22 -29 0 -17 -6 -31 -16 -35 -32 -12 -37 -5 -14 19 25 27 23 40 -4 29 -15 -6 -17 -13 -20 -57 -1 -10 -8 -22 -16 -28 -13 -10 -13 -10 0 -6 8 2 23 -4 33 -13 17 -17 17 -18 -12 -31 -26 -12 -28 -14 -13 -26 11 -8 12 -12 5 -13 -7 0 -22 -9 -32 -19 -18 -18 -18 -20 -3 -26 14 -5 13 -9 -8 -20 -22 -12 -22 -14 -5 -15 14 0 16 -3 8 -11 -12 -12 -6 -40 11 -51 6 -4 7 -10 3 -14 -4 -4 -13 -2 -19 4 -7 7 -19 12 -28 12 -10 0 -9 -4 6 -13 12 -6 32 -18 44 -26 21 -12 22 -12 17 4 -5 11 -3 15 5 12 7 -2 12 -14 10 -25 -2 -13 3 -25 12 -28 9 -3 13 -11 10 -16 -4 -6 -10 -5 -15 3 -4 7 -11 11 -14 7 -3 -3 1 -13 9 -21 10 -9 13 -23 9 -33 -4 -12 -3 -15 5 -10 8 5 12 0 12 -12 0 -11 7 -25 15 -32 9 -7 14 -19 11 -26 -2 -7 3 -19 13 -28 10 -9 21 -34 24 -54 7 -53 36 -109 87 -169 17 -20 48 -115 55 -168 4 -27 22 -84 40 -125 19 -41 33 -82 33 -90 -3 -47 5 -62 55 -99 88 -67 99 -101 117 -366 9 -134 29 -334 34 -351 8 -22 -17 -110 -37 -131 -26 -30 -54 -29 -98 2 l-37 24 5 -63 c5 -54 2 -70 -18 -105 -12 -22 -26 -41 -29 -41 -4 0 -25 -16 -48 -35 -28 -24 -58 -39 -95 -46 -34 -7 -54 -16 -54 -25 0 -9 7 -12 19 -8 11 3 18 0 18 -7 0 -7 -3 -10 -6 -6 -9 9 -56 -51 -49 -62 3 -6 -1 -26 -9 -45 -13 -31 -13 -35 2 -42 9 -4 20 -6 25 -6 4 1 7 -2 7 -8 0 -5 -4 -10 -10 -10 -5 0 -10 -5 -10 -10 0 -6 5 -9 11 -8 7 2 12 -10 13 -27 2 -43 23 -77 45 -70 21 6 50 -22 51 -50 3 -77 7 -115 13 -121 4 -4 3 -12 -2 -18 -4 -6 -4 -27 2 -46 5 -19 12 -29 14 -22 8 21 32 13 39 -12 4 -16 -6 -45 -32 -94 -49 -96 -176 -226 -349 -362 -32 -25 -81 -65 -110 -90 -207 -177 -460 -242 -751 -195 -162 26 -369 130 -591 297 -133 101 -177 141 -247 232 -100 128 -138 218 -182 426 -15 70 -19 134 -19 367 0 156 -1 283 -3 283 -2 0 -20 -10 -41 -22 -47 -27 -80 -20 -105 23 -17 28 -18 44 -12 143 4 61 14 145 22 186 16 86 19 279 4 330 -18 61 43 149 124 180 36 13 44 36 61 175 8 66 19 138 24 160 6 22 15 61 20 87 6 27 19 65 30 85 11 21 24 66 31 101 13 73 44 152 61 152 6 0 19 10 30 23 20 24 23 71 13 176 -6 52 -13 68 -43 102 -35 40 -43 44 -216 106 -22 7 -53 20 -70 27 -16 8 -41 17 -55 21 -14 4 -65 31 -115 60 -49 29 -114 65 -144 80 l-54 27 -44 -44 c-216 -209 -438 -600 -537 -945 -66 -230 -81 -346 -81 -643 0 -234 3 -280 24 -395 99 -552 376 -1031 805 -1394 324 -274 777 -468 1216 -521 109 -13 431 -13 540 0 273 33 543 116 796 245 237 121 414 254 609 456 333 346 540 759 622 1247 25 151 25 582 0 727 -85 483 -295 908 -609 1231 l-99 101 -112 -49 c-170 -76 -226 -104 -271 -142 -62 -51 -134 -94 -170 -102 -17 -4 -44 -17 -60 -31 -33 -28 -44 -24 -23 9 27 43 29 77 7 143 -11 34 -35 83 -53 108 -33 45 -97 106 -97 90z m248 -3124 c-2 -6 -8 -10 -13 -10 -5 0 -11 4 -13 10 -2 6 4 11 13 11 9 0 15 -5 13 -11z"></path>  <path d="M3144 2395 c-16 -12 -17 -14 -2 -15 11 0 15 -6 11 -20 -7 -26 15 -80 33 -80 8 0 14 -8 14 -17 0 -15 1 -15 13 2 9 11 19 15 27 10 7 -4 15 -3 19 4 10 15 71 -9 71 -28 0 -8 3 -12 6 -8 4 3 3 14 -1 24 -12 26 -12 29 -14 71 -1 34 -4 38 -28 37 -21 0 -31 -9 -47 -42 -21 -43 -36 -55 -36 -29 0 8 -6 17 -12 19 -7 3 -3 6 8 6 15 1 24 10 28 27 8 31 -1 45 -14 24 -8 -12 -13 -11 -30 8 -25 26 -21 26 -46 7z"></path>  <path d="M3250 2260 c-13 -8 -12 -11 5 -24 26 -20 39 -20 31 0 -3 9 -6 20 -6 25 0 11 -11 11 -30 -1z"></path>  <path d="M3352 2223 c-2 -24 -6 -31 -16 -27 -10 4 -13 0 -11 -13 2 -10 4 -23 4 -30 1 -7 7 -10 15 -7 10 4 12 -2 8 -22 -3 -15 -13 -29 -23 -31 -20 -6 -27 -33 -8 -33 5 0 7 -4 4 -10 -3 -5 -1 -10 5 -10 6 0 8 -5 5 -11 -4 -6 0 -16 8 -22 18 -14 32 -57 19 -57 -5 0 -15 7 -23 16 -10 12 -10 17 0 23 10 6 8 10 -5 15 -9 3 -19 5 -21 2 -9 -9 10 -75 21 -73 6 1 12 -13 12 -35 2 -27 -5 -45 -25 -67 -28 -31 -41 -31 -41 -1 0 9 -9 34 -20 56 -12 21 -17 28 -14 14 4 -14 20 -74 35 -135 19 -76 28 -99 28 -75 1 26 4 31 11 20 7 -11 10 -3 10 28 0 26 -4 41 -10 37 -12 -8 -13 5 -1 24 16 25 39 5 38 -33 -1 -20 -5 -36 -11 -36 -5 0 -1 -7 10 -15 14 -10 15 -14 4 -15 -10 0 -11 -3 -3 -11 14 -14 33 -3 33 18 0 12 3 13 14 4 11 -9 15 -8 20 5 11 29 7 64 -8 58 -11 -4 -13 13 -10 93 5 123 6 105 -6 196 -6 49 -16 85 -27 95 -9 9 -18 16 -20 15 -2 -2 -6 -3 -10 -3 -5 0 -2 4 5 9 9 5 12 21 9 42 l-4 34 -1 -32z"></path>  <path d="M2460 2208 c-21 -9 -22 -12 -7 -15 23 -6 47 3 47 17 0 12 -8 12 -40 -2z"></path>  <path d="M3490 2045 c0 -8 -10 -20 -22 -26 -15 -8 -18 -14 -10 -17 7 -2 22 4 33 14 20 18 26 44 9 44 -5 0 -10 -7 -10 -15z"></path>  <path d="M3468 1945 c2 -14 8 -28 13 -31 15 -9 10 33 -5 45 -11 9 -12 6 -8 -14z"></path>  <path d="M3545 1818 c8 -20 52 -41 60 -28 4 6 -2 10 -11 10 -10 0 -26 8 -36 17 -16 14 -18 14 -13 1z"></path>  <path d="M2920 1754 c0 -9 5 -14 12 -12 18 6 21 28 4 28 -9 0 -16 -7 -16 -16z"></path>  <path d="M3222 1740 c0 -19 2 -27 5 -17 2 9 2 25 0 35 -3 9 -5 1 -5 -18z"></path>  <path d="M3143 662 c-6 -4 -14 -25 -18 -46 -6 -28 -5 -37 4 -32 6 4 11 20 11 35 0 15 5 32 12 39 13 13 9 16 -9 4z"></path>  </g> </svg>